<?xml version="1.0" encoding="utf-8" ?><svg xmlns="http://www.w3.org/2000/svg" xmlns:xlink="http://www.w3.org/1999/xlink" width="2161" height="2161" viewBox="0 0 2161 2161"><path fill="white" transform="scale(2.10997 2.10997)" d="M0 0L1024 0L1024 1024L0 1024L0 0Z"/><path fill="#080202" transform="scale(2.10997 2.10997)" d="M456.339 96.4779C457.679 89.7178 463.246 82.9762 469.325 79.8694C475.523 76.7466 482.719 76.2557 489.284 78.5077C497.979 81.5704 501.728 87.2932 505.543 94.9326C515.879 92.3269 523.445 90.3784 534.174 89.3043C538.332 88.4907 552.545 88.0791 556.405 89.2195C560.235 89.7412 566.727 90.6515 570.371 91.9932C571.396 91.1744 571.29 91.1438 571.841 89.9199C577.243 77.9132 591.675 74.0583 602.872 80.1714C608.38 83.1364 612.439 88.2202 614.111 94.2474C616.796 103.987 613.393 112.478 606.369 119.321C608.343 122.484 611.498 127.449 612.378 131.087C613.215 132.358 612.951 132.549 614.089 132.659C618.613 133.097 623.892 133.278 628.454 133.421C636.181 133.663 644.092 134.36 651.764 134.501C651.627 139.34 651.486 142.66 651.926 147.49L652.009 148.478C647.724 151.956 646.907 154.943 645.434 160.151C642.752 169.633 640.417 177.239 633.925 184.867C637.413 201.767 634.52 215.03 620.027 225.671C620.834 227.787 621.626 229.952 622.514 232.032C671.868 262.741 682.246 263.533 690.556 325.1L697.261 377.451L703.333 422.5C704.106 428.232 706.35 442.423 706.364 447.462C706.402 460.258 705.648 474.489 705.208 487.361L702.76 557.015C701.935 557.71 701.914 557.728 701.058 558.287C700.257 561.601 700.553 568.189 700.521 571.969L692.769 571.871C694.621 588.495 697.004 608.082 687.932 623.479C680.053 642.717 662.849 655.929 643.158 661.375C635.161 721.758 625.397 782.395 616.909 842.808C618.347 844.117 619.225 844.564 619.938 846.229C622.291 846.259 621.896 845.885 623.421 847.034L623.643 847.599C624.68 850.18 625.234 850.084 626.153 851.812L626.691 852.178L628.208 851.349C629.098 852.479 628.287 853.29 629.321 855.096C630.558 856.001 630.405 855.998 631.799 856.619C632.271 856.141 632.557 855.774 633.158 855.497L633.444 855.626C633.302 856.658 632.377 856.232 632.591 857.439C634.241 856.67 637.202 854.783 633.664 858.725C635.419 860.157 637.199 861.648 638.977 863.041C639.696 863.485 639.714 862.58 640.247 862.254C641.907 861.24 642.408 862.878 640.38 864.022C654.817 876.3 683.249 875.405 686.42 897.031C686.821 899.759 686.413 906.197 684.913 908.518L685.468 909.024C687.724 907.912 687.425 907.64 689.602 907.743C691.49 910.212 690.444 913.979 690.578 917.59C662.797 932.009 623.221 929.588 594.697 917.66C586.132 914.079 577.789 910.253 569.011 907.168L565.386 911.219C565.145 911.664 564.923 912.079 564.665 912.515C568.297 919.393 568.999 925.634 566.929 933.276L569.058 933.369C570.184 933.195 569.776 933.192 570.876 933.438C571.652 935.377 571.322 940.05 571.296 942.428C547.415 956.035 505.38 953.142 480.336 943.534C469.461 939.362 458.537 933.001 447.509 928.543C444.906 931.295 442.798 932.998 439.829 935.301C431.63 932.046 416.857 927.921 407.993 925.212C407.957 921.28 407.446 907.91 408.845 905.174L410.078 905.125L411.224 904.285C410.684 901.719 410.223 899.136 409.845 896.541C407.915 882.546 410.201 871.28 418.802 859.984L419.753 859.375L419.678 854.839C414.607 853.714 410.009 853.068 404.888 852.326C404.629 849.793 404.545 847.132 404.448 844.578C403.576 821.511 402.867 798.416 401.999 775.349L396.39 621.363L348.548 614.984C352.901 592.956 358.737 570.472 363.39 548.478C365.367 539.131 368.146 528.428 369.453 519.062C356.708 512.538 344.33 504.343 331.591 497.697C325.328 494.43 318.667 490.748 313.251 486.235C306.381 480.514 300.663 473.537 296.402 465.676C288.75 451.55 286.469 432.778 291.855 417.611C300.251 393.968 308.83 370.308 317.086 346.605L330.992 306.694C333.024 300.891 336.517 290.135 339.076 284.849C342.764 277.236 347.642 270.259 353.526 264.18C363.531 253.885 373.947 248.942 386.24 241.855C395.081 236.651 404.019 231.613 413.048 226.743C413.176 225.784 413.393 223.088 413.996 222.509C418.536 218.153 424.151 214.834 429.148 210.888C435.127 194.587 440.608 178.626 447.368 162.583C443.802 157.85 440.329 152.823 440.113 146.715C439.604 132.335 452.381 133.863 461.847 133.995C462.927 131.821 465.273 128.189 466.593 126.015C463.283 122.294 459.041 118.045 457.557 113.331C455.128 108.819 454.629 101.303 456.339 96.4779Z"/><path fill="#FC4D52" transform="scale(2.10997 2.10997)" d="M589.427 524.523C590.026 529.66 589.857 534.774 589.982 539.945C590.566 564.106 591.173 588.447 594.722 612.388C595.312 616.37 596.098 624.217 597.997 627.479C601.217 628.995 600.651 629.527 601.163 633.11C616.551 628.352 632.163 624.402 647.654 619.713L646.773 628.146C643.543 642.754 641.755 661.483 639.692 676.617L629.681 746.502C626.56 769.161 622.32 792.12 619.393 814.884C618.26 823.689 616.365 833.457 615.552 842.173C606.788 840.305 603.495 843.017 595.882 847.353C589.233 845.585 580.963 844.231 574.096 843.292C559.23 841.259 543.969 837.815 529.149 835.982C527.58 802.342 527.476 768.464 526.228 734.797C526.105 731.502 526.342 717.037 525.686 715.134L524.884 714.896C524.048 716.404 521.827 726.819 521.284 729.167L512.575 767.334L498.419 827.459C495.842 838.19 491.221 855.534 489.785 866.083C480.471 865.347 471.88 863.25 462.782 861.649C444.269 858.39 424.854 853.578 406.356 850.864C405.327 835.201 404.987 817.745 404.424 801.976L401.959 737.818C400.826 704.989 398.871 671.205 398.533 638.389C421.008 635.702 444.291 635.529 466.861 633.293C475.865 632.401 486.886 635.468 493.978 628.536C506.33 616.46 507.552 598.078 508.504 581.906C516.209 579.278 525.003 571.14 530.855 565.443C531.661 564.658 532.238 561.739 532.473 560.584C534.41 559.554 537.705 557.964 539.32 556.676C540.515 555.71 541.538 554.55 542.345 553.242C543.875 550.722 545.25 546.74 546.745 544.551C551.366 537.785 552.968 535.678 553.797 527.429C559.38 533.141 565.076 538.741 570.882 544.225C577.36 538.581 583.003 530.243 589.427 524.523Z"/><path fill="white" transform="scale(2.10997 2.10997)" d="M524.884 714.896C524.732 712.025 530.699 691.173 531.735 686.874C541.731 645.375 552.515 604.044 562.729 562.596C563.296 560.295 564.262 554.24 565.831 552.665C566.352 558.258 560.513 577.836 558.914 584.271L543.415 646.244C541.432 654.182 527.417 713.138 525.686 715.134L524.884 714.896Z"/><path fill="white" transform="scale(2.10997 2.10997)" d="M493.093 731.707L494.058 732.498C494.26 735.008 490.065 758.33 489.4 762.731C485.006 791.808 479.166 821.264 475.194 850.375L474.44 850.358L473.956 849.535C473.885 845.486 476.008 833.197 476.74 828.811L482.034 796.878L488.641 756.311C489.759 749.408 491.298 738.078 493.093 731.707Z"/><path fill="white" transform="scale(2.10997 2.10997)" d="M614.487 745.241C615.218 745.813 614.972 745.658 615.407 746.626C615.371 751.285 613.82 760.265 613.041 765.143L608.231 794.974L604.303 820.505C603.777 823.876 602.77 831.67 601.686 834.483C600.446 833.045 600.804 831.948 601.082 830.084C604.446 807.547 608.284 785.081 611.633 762.543C612.471 756.905 613.207 750.774 614.487 745.241Z"/><path fill="white" transform="scale(2.10997 2.10997)" d="M623.068 693.747C623.844 695.376 623.651 695.63 623.116 697.506C618.795 712.671 603.274 736.605 589.242 743.929C589.155 743.301 588.972 742.541 589.554 742.1C602.662 732.154 612.746 718.774 619.008 703.576C619.885 701.449 621.37 696.318 622.548 694.527L623.068 693.747Z"/><path fill="white" transform="scale(2.10997 2.10997)" d="M475.807 668.163C476.744 668.717 477.211 668.904 477.494 669.979C480.553 681.587 486.659 691.966 496.492 699.088C499.237 701.076 502.21 702.238 504.106 705.104C500.012 704.619 496.401 701.292 493.199 698.704C485.034 692.107 476.782 678.678 475.807 668.163Z"/><path fill="white" transform="scale(2.10997 2.10997)" d="M627.245 656.143C630.01 657.33 627.235 667.232 626.522 669.801C623.858 669.889 626.809 658.362 627.245 656.143Z"/><path fill="#FC4D52" transform="scale(2.10997 2.10997)" d="M666.107 443.917C666.476 445.273 666.733 446.365 667.018 447.745C666.712 463.331 667.519 479.397 667.577 495.017C667.597 500.442 668.03 508.477 667.739 513.692L667.674 515.066C668.461 521.023 669.557 609.742 668.934 610.91L668.6 611.117L668.53 612.534C668.587 616.776 668.487 620.105 668.225 624.342C661.567 626.056 654.883 627.665 648.174 629.168L646.773 628.146L647.654 619.713C632.163 624.402 616.551 628.352 601.163 633.11C600.651 629.527 601.217 628.995 597.997 627.479C596.098 624.217 595.312 616.37 594.722 612.388C591.173 588.447 590.566 564.106 589.982 539.945C589.857 534.774 590.026 529.66 589.427 524.523L590.027 524.327C590.659 522.775 590.202 514.836 590.559 511.816C590.933 508.389 590.4 497.246 590.3 493.374C627.217 496.681 654.454 479.178 666.107 443.917Z"/><defs><linearGradient id="gradient_0" gradientUnits="userSpaceOnUse" x1="648.87885" y1="638.44904" x2="568.51825" y2="543.72418"><stop offset="0" stop-color="black"/><stop offset="1" stop-color="#1B0100"/></linearGradient></defs><path fill="url(#gradient_0)" transform="scale(2.10997 2.10997)" d="M590.559 511.816C591.032 517.366 591.005 523.164 591.128 528.743C591.846 561.393 591.866 593.707 598.834 625.781C606.653 624.783 615.843 622.601 623.735 620.962C638.728 617.856 653.684 614.574 668.6 611.117L668.53 612.534C668.587 616.776 668.487 620.105 668.225 624.342C661.567 626.056 654.883 627.665 648.174 629.168L646.773 628.146L647.654 619.713C632.163 624.402 616.551 628.352 601.163 633.11C600.651 629.527 601.217 628.995 597.997 627.479C596.098 624.217 595.312 616.37 594.722 612.388C591.173 588.447 590.566 564.106 589.982 539.945C589.857 534.774 590.026 529.66 589.427 524.523L590.027 524.327C590.659 522.775 590.202 514.836 590.559 511.816Z"/><path fill="white" transform="scale(2.10997 2.10997)" d="M667.674 515.066C662.78 515.465 657.213 515.44 652.25 515.583C649.498 515.662 633.215 517.697 632.354 516.634C632.548 515.518 633.751 515.11 634.761 515.114C645.038 515.157 657.695 512.399 667.739 513.692L667.674 515.066Z"/><path fill="#3D4449" transform="scale(2.10997 2.10997)" d="M456.339 96.4779C457.679 89.7178 463.246 82.9762 469.325 79.8694C475.523 76.7466 482.719 76.2557 489.284 78.5077C497.979 81.5704 501.728 87.2932 505.543 94.9326C515.879 92.3269 523.445 90.3784 534.174 89.3043C538.332 88.4907 552.545 88.0791 556.405 89.2195C560.235 89.7412 566.727 90.6515 570.371 91.9932C571.396 91.1744 571.29 91.1438 571.841 89.9199C577.243 77.9132 591.675 74.0583 602.872 80.1714C608.38 83.1364 612.439 88.2202 614.111 94.2474C616.796 103.987 613.393 112.478 606.369 119.321C608.343 122.484 611.498 127.449 612.378 131.087L611.241 132.212C609.531 133.872 602.447 133.535 599.994 134.656C587.689 140.278 570.558 146.333 558.265 136.669C553.736 135.211 545.678 132.776 541.052 132.105C540.313 132.557 539.911 132.707 539.016 132.675C513.88 131.776 488.711 134.499 463.609 133.984C465.37 130.62 466.334 129.154 468.568 126.085C465.073 122.051 461.139 117.826 458.19 113.406L457.557 113.331C455.128 108.819 454.629 101.303 456.339 96.4779Z"/><path fill="#3D4449" transform="scale(2.10997 2.10997)" d="M570.371 91.9932C571.396 91.1744 571.29 91.1438 571.841 89.9199C577.243 77.9132 591.675 74.0583 602.872 80.1714C608.38 83.1364 612.439 88.2202 614.111 94.2474C616.796 103.987 613.393 112.478 606.369 119.321C605.849 118.68 605.751 118.556 605.326 117.861C604.344 116.208 603.196 114.681 602.043 113.144L602.288 112.792C605.178 108.711 606.854 104.947 606.015 99.9986C604.235 89.5067 587.084 85.9969 582.266 96.1485C582.146 96.3302 582.026 96.5119 581.907 96.6936C578.957 95.1788 575.304 93.3105 572.091 92.441C571.133 92.4911 570.3 92.9084 570.371 91.9932Z"/><path fill="#080202" transform="scale(2.10997 2.10997)" d="M570.371 91.9932C571.396 91.1744 571.29 91.1438 571.841 89.9199C577.243 77.9132 591.675 74.0583 602.872 80.1714C608.38 83.1364 612.439 88.2202 614.111 94.2474C616.796 103.987 613.393 112.478 606.369 119.321C605.849 118.68 605.751 118.556 605.326 117.861C626.171 99.3421 604.078 71.645 583.497 80.4116C578.223 82.7117 574.108 87.0523 572.091 92.441C571.133 92.4911 570.3 92.9084 570.371 91.9932Z"/><path fill="#161616" transform="scale(2.10997 2.10997)" d="M556.405 89.2195C560.235 89.7412 566.727 90.6515 570.371 91.9932C570.3 92.9084 571.133 92.4911 572.091 92.441C575.304 93.3105 578.957 95.1788 581.907 96.6936C582.026 96.5119 582.146 96.3302 582.266 96.1485C587.084 85.9969 604.235 89.5067 606.015 99.9986C606.854 104.947 605.178 108.711 602.288 112.792L602.043 113.144C603.196 114.681 604.344 116.208 605.326 117.861C605.751 118.556 605.849 118.68 606.369 119.321C608.343 122.484 611.498 127.449 612.378 131.087L611.241 132.212C609.784 119.285 583.983 97.0605 571.304 93.9911C565.992 92.7052 560.463 91.7298 555.269 90.3031L555.013 89.7339L556.405 89.2195Z"/><path fill="white" transform="scale(2.10997 2.10997)" d="M535.149 122.133C543.171 124.608 552.791 127.99 560.35 131.519C561.485 132.049 558.643 136.176 558.265 136.669C553.736 135.211 545.678 132.776 541.052 132.105C538.151 130.923 535.187 129.904 532.172 129.055C533.218 126.587 534 124.614 535.149 122.133Z"/><path fill="#080202" transform="scale(2.10997 2.10997)" d="M456.339 96.4779C457.679 89.7178 463.246 82.9762 469.325 79.8694C475.523 76.7466 482.719 76.2557 489.284 78.5077C497.979 81.5704 501.728 87.2932 505.543 94.9326C515.879 92.3269 523.445 90.3784 534.174 89.3043L535.426 89.9136L504.78 96.5078C496.795 75.7696 472.653 72.3594 460.104 90.4972C459.181 91.831 457.471 96.7861 456.339 96.4779Z"/><path fill="#080202" transform="scale(2.10997 2.10997)" d="M478.391 92.1241C485.522 91.5764 490.695 93.16 493.65 100.531C494.02 101.452 483.067 109.828 481.821 110.888C479.471 112.687 477.918 113.863 475.423 115.458C468.382 107.004 466.875 97.3645 478.391 92.1241Z"/><path fill="#161616" transform="scale(2.10997 2.10997)" d="M479.683 93.5878C486.332 92.9092 487.874 95.2651 492.256 100.386C487.975 103.309 484.106 106.61 480.277 110.106C478.933 111.241 477.453 112.461 476.044 113.502C469.001 105.02 469.378 99.1855 479.683 93.5878Z"/><path fill="white" transform="scale(2.10997 2.10997)" d="M594.138 123.504C596.353 123.592 598.999 126.83 598.564 128.563C598.311 128.819 579.879 135.749 577.892 136.558C573.361 136.86 573.44 132.142 573.766 131.921C578.723 128.563 588.222 125.191 594.138 123.504Z"/><path fill="white" transform="scale(2.10997 2.10997)" d="M523.76 725.518C525.007 727.722 524.404 731.36 524.934 734.706L526.528 795.607C526.856 809.205 526.977 823.88 527.773 837.39C531.448 837.859 535.119 838.356 538.786 838.884C539.17 839.906 539.574 840.92 539.996 841.927L538.561 842.682C531.888 850.089 529.588 861.413 530.231 871.07C530.497 875.057 531.205 882.164 532.853 885.702L533.014 887.061C530.769 886.686 531.432 886.452 529.832 887.393C529.53 888.794 529.395 889.105 530.289 890.734L529.311 890.842C528.064 889.362 525.925 888.129 524.109 885.947L524.371 884.281L523.754 883.955L522.57 884.803L521.912 884.671C519.886 882.781 517.154 878.013 517.088 877.962L515.588 879.167L515.169 878.83C514.487 877.389 512.439 875.146 511.332 873.809C511.77 872.393 511.749 872.933 511.617 871.506L510.701 871.234C509.977 872.004 510.302 871.554 509.775 872.618L508.816 871.865L508.791 871.586C507.301 870.112 504.547 866.967 502.765 866.466L502.331 866.018C501.803 862.837 494.555 861.972 491.924 861.849C495.095 845.389 499.455 830.174 503.23 814.002L523.76 725.518Z"/><path fill="#080202" transform="scale(2.10997 2.10997)" d="M411.224 904.285C426.337 908.445 441.032 912.352 455.786 917.711C470.309 922.987 484.567 931.126 499.256 935.448C519.316 941.35 547.574 941.694 566.929 933.276L569.058 933.369C570.184 933.195 569.776 933.192 570.876 933.438C571.652 935.377 571.322 940.05 571.296 942.428C547.415 956.035 505.38 953.142 480.336 943.534C469.461 939.362 458.537 933.001 447.509 928.543C444.906 931.295 442.798 932.998 439.829 935.301C431.63 932.046 416.857 927.921 407.993 925.212C407.957 921.28 407.446 907.91 408.845 905.174L410.078 905.125L411.224 904.285Z"/><path fill="#D9DADB" transform="scale(2.10997 2.10997)" d="M411.224 904.285C426.337 908.445 441.032 912.352 455.786 917.711C470.309 922.987 484.567 931.126 499.256 935.448C519.316 941.35 547.574 941.694 566.929 933.276L569.058 933.369C546.997 944.014 515.665 942.658 492.945 934.605C480.738 930.278 468.346 923.428 456.226 919.014C441.501 913.651 425.26 909.302 410.078 905.125L411.224 904.285Z"/><path fill="#3D4449" transform="scale(2.10997 2.10997)" d="M675.32 569.944C679.972 569.801 691.272 569.805 695.673 570.435C693.283 570.598 692.74 570.21 691.175 571.392L691.275 572.768L692.2 573.418L692.769 571.871C694.621 588.495 697.004 608.082 687.932 623.479L687.274 623.368C685.577 625.769 684.061 628.446 682.531 630.972C674.202 644.724 659.003 655.939 643.298 659.474C643.611 656.277 643.878 654.197 644.492 651.041C650.89 645.581 665.747 634.513 669.128 627.972C664.785 631.152 661.158 634.896 657.096 638.421C653.229 641.778 649.242 644.64 645.075 647.588C646.038 643.189 647.912 633.558 648.174 629.168C654.883 627.665 661.567 626.056 668.225 624.342C668.487 620.105 668.587 616.776 668.53 612.534L670.163 611.878C672.313 608.517 669.131 578.348 670.73 572.531C671.112 571.145 673.741 571.032 675.32 569.944Z"/><path fill="#080202" transform="scale(2.10997 2.10997)" d="M532.853 885.702C548.223 888.61 560.531 891.035 575.437 896.172C613.804 909.393 643.66 925.395 684.913 908.518L685.468 909.024C687.724 907.912 687.425 907.64 689.602 907.743C691.49 910.212 690.444 913.979 690.578 917.59C662.797 932.009 623.221 929.588 594.697 917.66C586.132 914.079 577.789 910.253 569.011 907.168L565.386 911.219C553.259 897.916 545.34 899.54 530.289 890.734C529.395 889.105 529.53 888.794 529.832 887.393C531.432 886.452 530.769 886.686 533.014 887.061L532.853 885.702Z"/><path fill="#D9DADB" transform="scale(2.10997 2.10997)" d="M532.853 885.702C548.223 888.61 560.531 891.035 575.437 896.172C613.804 909.393 643.66 925.395 684.913 908.518L685.468 909.024C678.637 913.104 669.814 914.883 662.029 915.992C628.729 920.734 601.715 905.847 570.781 895.817C558.444 891.902 545.815 888.974 533.014 887.061L532.853 885.702Z"/><path fill="#3D4449" transform="scale(2.10997 2.10997)" d="M419.678 854.839C429.065 856.217 440.406 859.209 449.999 860.944C454.461 861.751 472.464 864.73 475.549 865.973C459.509 873.823 431.336 875.201 419.753 859.375L419.678 854.839Z"/><path fill="white" transform="scale(2.10997 2.10997)" d="M670.455 557.501L699.433 557.632C699.337 560.441 699.234 563.29 699.117 566.095C698.915 570.96 700.021 570.387 695.673 570.435C691.272 569.805 679.972 569.801 675.32 569.944C668.954 570.199 670.733 570.28 670.449 564.039C670.352 561.896 670.452 559.651 670.455 557.501Z"/><path fill="#080202" transform="scale(2.10997 2.10997)" d="M693.756 561.816C694.382 561.179 695.303 560.93 696.164 561.164C697.026 561.398 697.694 562.079 697.911 562.945C698.128 563.811 697.861 564.727 697.212 565.34C696.234 566.264 694.696 566.234 693.755 565.274C692.813 564.313 692.814 562.776 693.756 561.816Z"/><path fill="#3D4449" transform="scale(2.10997 2.10997)" d="M538.786 838.884C542.629 839.199 586.476 846.95 588.276 847.922C580.305 850.586 571.879 851.612 563.502 850.941C554.485 850.246 546.365 848.664 539.996 841.927C539.574 840.92 539.17 839.906 538.786 838.884Z"/><path fill="#D9DADB" transform="scale(2.10997 2.10997)" d="M419.753 859.375C431.336 875.201 459.509 873.823 475.549 865.973L476.587 866.18L476.174 866.882C460.727 875.916 430.055 875.87 418.802 859.984L419.753 859.375Z"/><path fill="#D9DADB" transform="scale(2.10997 2.10997)" d="M539.996 841.927C546.365 848.664 554.485 850.246 563.502 850.941C571.879 851.612 580.305 850.586 588.276 847.922L590.258 847.697L590.301 848.261C576.18 855.524 550.649 853.767 538.561 842.682L539.996 841.927Z"/><path fill="#D9DADB" transform="scale(2.10997 2.10997)" d="M530.289 890.734C545.34 899.54 553.259 897.916 565.386 911.219C565.145 911.664 564.923 912.079 564.665 912.515C551.977 897.501 538.732 900.102 529.311 890.842L530.289 890.734Z"/><path fill="#9A9B9F" transform="scale(2.10997 2.10997)" d="M508.816 871.865L509.775 872.618C503.972 875.005 497.046 880.599 491.253 883.517C490.868 883.711 491.761 885.49 491.318 885.671C487.444 887.252 486.472 884.574 491.115 882.162C496.489 879.372 503.449 875.738 508.353 872.203L508.816 871.865Z"/><path fill="#6C6E72" transform="scale(2.10997 2.10997)" d="M483.524 876.937C486.147 875.093 500.019 866.663 502.331 866.018L502.765 866.466C497.394 870.208 490.018 873.137 484.841 877.521C484.508 877.754 484.176 877.987 483.843 878.221L483.524 876.937Z"/><path fill="#6C6E72" transform="scale(2.10997 2.10997)" d="M609.713 861.28C614.667 860.058 621.33 854.1 626.153 851.812L626.691 852.178C623.283 855.265 612.921 860.496 611.034 862.896C610.441 862.249 610.198 862.007 609.713 861.28Z"/><path fill="#6C6E72" transform="scale(2.10997 2.10997)" d="M521.912 884.671L522.57 884.803C520.54 886.927 508.642 894.841 505.783 895.683C505.186 895.424 504.517 895.103 503.901 894.922C507.122 894.902 518.733 886.996 521.912 884.671Z"/><path fill="#6C6E72" transform="scale(2.10997 2.10997)" d="M496.442 889.063C502.293 888.698 509.152 881.729 515.169 878.83L515.588 879.167C512.383 882.408 499.551 888.784 498.015 890.937C497.201 890.107 497.027 890.011 496.442 889.063Z"/><path fill="#9A9B9F" transform="scale(2.10997 2.10997)" d="M638.977 863.041C639.696 863.485 639.714 862.58 640.247 862.254C641.907 861.24 642.408 862.878 640.38 864.022C636.748 863.648 630.085 872.128 625.783 872.488C625.655 872.499 625.64 872.388 625.598 872.265C625.669 872 637.943 863.635 638.977 863.041Z"/><path fill="#6C6E72" transform="scale(2.10997 2.10997)" d="M631.799 856.619C632.271 856.141 632.557 855.774 633.158 855.497L633.444 855.626C633.302 856.658 632.377 856.232 632.591 857.439L632.58 857.838C629.138 859.556 620.254 866.665 618.193 867.066L617.947 866.818C617.971 866.276 630.222 858.338 631.799 856.619Z"/><path fill="#6C6E72" transform="scale(2.10997 2.10997)" d="M606.033 854.257C608.074 852.829 617.896 846.852 619.938 846.229C618.14 848.288 609.275 853.677 606.608 855.044L606.033 854.257Z"/><path fill="white" transform="scale(2.10997 2.10997)" d="M606.033 854.257L606.608 855.044C602.617 856.563 603.985 856.1 603.328 858.807C603.131 859.619 599.592 858.138 600.603 856.79C601.452 855.657 604.556 854.901 606.033 854.257Z"/><path fill="white" transform="scale(2.10997 2.10997)" d="M503.901 894.922C504.517 895.103 505.186 895.424 505.783 895.683C505.729 896.266 505.937 898.071 505.767 898.204C503.609 899.88 500.961 897.935 503.901 894.922Z"/><path fill="white" transform="scale(2.10997 2.10997)" d="M496.442 889.063C497.027 890.011 497.201 890.107 498.015 890.937C501.383 893.765 491.47 894.151 496.442 889.063Z"/><path fill="white" transform="scale(2.10997 2.10997)" d="M611.034 862.896C611.793 866.624 604.708 865.181 609.713 861.28C610.198 862.007 610.441 862.249 611.034 862.896Z"/><path fill="white" transform="scale(2.10997 2.10997)" d="M483.843 878.221C483.959 879.131 484.199 878.51 484.7 879.3C484.479 881.011 480.705 880.483 480.889 878.729C480.969 877.975 482.864 877.381 483.524 876.937L483.843 878.221Z"/><path fill="#6C6E72" transform="scale(2.10997 2.10997)" d="M523.76 725.518C523.883 724.825 523.883 723.354 524.437 722.817C524.522 722.824 524.608 722.831 524.693 722.838C525.376 725.306 524.827 730.142 525.037 732.956C525.039 732.976 524.935 734.687 524.934 734.706C524.404 731.36 525.007 727.722 523.76 725.518Z"/><path fill="#161616" transform="scale(2.10997 2.10997)" d="M632.591 857.439C634.241 856.67 637.202 854.783 633.664 858.725C633.221 858.398 632.982 858.218 632.58 857.838L632.591 857.439Z"/><path fill="#9C4948" transform="scale(2.10997 2.10997)" d="M666.107 443.917C666.204 443.412 666.198 443.032 666.591 442.728C667.291 442.865 667.024 447.228 667.018 447.745C666.733 446.365 666.476 445.273 666.107 443.917Z"/><path fill="#FC4D52" transform="scale(2.10997 2.10997)" d="M348.087 273.368C358.095 256.163 394.96 238.835 413.193 228.452C412.666 233.972 408.694 270.206 409.751 273.424C414.113 275.851 430.952 285.61 434.578 286.425C429.328 295.667 421.632 304.43 416.747 312.811C450.7 362.538 483.231 414.944 518.15 464.097C518.632 472.702 518.838 482.737 518.89 491.407C497.937 485.21 488.635 483.994 470.542 471.183L470.179 472.647C463.687 480.427 454.797 488.801 448.79 496.894C438.117 511.273 428.466 530.722 420.458 546.937C397.518 533.362 374.43 520.038 351.199 506.968C339.517 500.338 321.944 491.521 312.15 483.326C299.599 472.272 291.472 456.469 290.502 439.826C289.608 424.485 295.473 411.805 300.508 397.795L314.69 358.181L330.988 310.95C334.47 300.988 339.877 282.828 346.529 275.403L348.087 273.368Z"/><path fill="#FC4D52" transform="scale(2.10997 2.10997)" d="M348.087 273.368C358.095 256.163 394.96 238.835 413.193 228.452C412.666 233.972 408.694 270.206 409.751 273.424C414.113 275.851 430.952 285.61 434.578 286.425C429.328 295.667 421.632 304.43 416.747 312.811C450.7 362.538 483.231 414.944 518.15 464.097C518.632 472.702 518.838 482.737 518.89 491.407C497.937 485.21 488.635 483.994 470.542 471.183C467.111 467.995 448.224 456.126 443.527 453.055L394.393 420.548C396.007 417.026 398.54 409.5 400.123 405.6C403.74 396.695 407.466 386.88 410.845 377.956C418.432 355.924 411.434 325.129 401.933 304.896C392.251 284.277 372.99 261.071 348.087 273.368Z"/><path fill="white" transform="scale(2.10997 2.10997)" d="M348.087 273.368C372.99 261.071 392.251 284.277 401.933 304.896C411.434 325.129 418.432 355.924 410.845 377.956C407.466 386.88 403.74 396.695 400.123 405.6C398.54 409.5 396.007 417.026 394.393 420.548L392.478 420.555C393.342 417.277 396.869 409.007 398.211 405.521C408.548 378.688 415.892 369.273 410.646 339.397C406.592 316.31 397.67 292.203 378.378 277.182C371.111 272.093 362.198 269.285 353.607 272.805C351.256 273.768 348.878 275.12 346.529 275.403L348.087 273.368Z"/><path fill="#080202" transform="scale(2.10997 2.10997)" d="M394.393 420.548L443.527 453.055C448.224 456.126 467.111 467.995 470.542 471.183L470.179 472.647C466.366 469.429 455.03 462.389 450.383 459.326L410.189 432.89C406.75 430.649 394.827 423.258 392.478 420.555L394.393 420.548Z"/><path fill="white" transform="scale(2.10997 2.10997)" d="M370.085 421.613C376.267 421.196 383.871 421.628 389.347 424.85C402.124 432.368 415.202 441.103 427.374 449.646C436.2 455.841 452.757 464.761 460.047 471.935C452.612 469.235 435.716 457.352 428.234 452.353C414.692 443.245 399.967 431.988 385.456 425.22C374.275 420.005 357.264 425.306 348.691 433.189C344.863 436.71 341.574 440.466 337.378 443.63C344.64 431.335 356.257 424.243 370.085 421.613Z"/><path fill="#FC4D52" transform="scale(2.10997 2.10997)" d="M595.638 359.238C632.352 356.791 664.115 384.531 666.632 421.241C669.148 457.95 641.467 489.765 604.762 492.351C567.96 494.943 536.041 467.172 533.518 430.365C530.995 393.558 558.826 361.691 595.638 359.238Z"/><path fill="#080202" transform="scale(2.10997 2.10997)" d="M594.587 370.719C625.005 367.714 652.118 389.893 655.202 420.304C658.286 450.715 636.176 477.885 605.773 481.046C575.26 484.22 547.969 462.012 544.875 431.491C541.78 400.969 564.057 373.736 594.587 370.719Z"/><path fill="white" transform="scale(2.10997 2.10997)" d="M595.606 372.127C625.231 369.704 651.234 391.701 653.757 421.318C656.28 450.934 634.372 477.012 604.764 479.635C575.014 482.271 548.784 460.235 546.249 430.476C543.714 400.717 565.838 374.562 595.606 372.127Z"/><path fill="#3D4449" transform="scale(2.10997 2.10997)" d="M454.175 150.713C459.294 150.744 490.509 148.666 491.504 152.631C497.463 176.385 508.26 199.727 537.237 195.822C544.063 194.902 547.884 192.064 553.857 188.991C560.254 181.502 560.978 180.173 565.383 171.911C568.029 165.672 569.656 159.721 571.928 153.538C588.321 153.524 580.28 154.077 588.42 168.306C607.342 165.312 630.618 167.796 633.533 191.394C635.558 207.782 626.476 224.43 609.653 228.145C605.535 231.684 599.773 233.756 595.276 236.269C573.764 248.294 557.079 249.603 532.855 248.218C520.334 247.502 520.295 246.066 509.52 243.484L509.36 244.215C505.571 242.869 499.07 240.182 495.602 238.289C489.577 235.721 483.303 232.12 477.389 229.196C474.972 228.284 469.981 225.691 467.864 224.243C464.053 222.576 460.103 220.345 456.532 218.186C455.156 217.718 450.101 214.759 448.837 213.778C448.705 212.062 435.742 205.067 433.563 203.783C436.739 192.978 441.284 181.313 445.485 170.83C448.175 164.117 451.898 157.723 454.175 150.713Z"/><path fill="white" transform="scale(2.10997 2.10997)" d="M571.928 153.538C588.321 153.524 580.28 154.077 588.42 168.306C607.342 165.312 630.618 167.796 633.533 191.394C635.558 207.782 626.476 224.43 609.653 228.145C606.811 228.427 604.019 228.485 601.173 228.53C574.298 228.957 545.756 223.841 553.857 188.991C560.254 181.502 560.978 180.173 565.383 171.911C568.029 165.672 569.656 159.721 571.928 153.538Z"/><path fill="#3D4449" transform="scale(2.10997 2.10997)" d="M571.928 153.538C588.321 153.524 580.28 154.077 588.42 168.306C587.567 168.494 587.09 168.445 586.254 168.546C579.374 169.371 572.171 170.754 565.383 171.911C568.029 165.672 569.656 159.721 571.928 153.538Z"/><path fill="#080202" transform="scale(2.10997 2.10997)" d="M602.267 177.126C606.789 176.79 623.273 175.33 624.679 180.97C626.534 188.413 617.165 193.618 611.497 195.779C611.483 199.442 611.487 203.105 611.51 206.769C613.315 207.695 621.224 210.817 621.153 212.94C620.36 214.074 614.431 210.166 613.242 209.541C607.78 206.54 603.614 216.341 600.253 215.308C599.065 213.726 608.58 207.594 609.968 206.55L609.97 195.768C597.589 193.592 586.075 180.797 602.267 177.126Z"/><path fill="#161616" transform="scale(2.10997 2.10997)" d="M477.389 229.196C480.342 228.702 494.39 235.449 495.927 237.302C495.974 237.662 495.766 237.941 495.602 238.289C489.577 235.721 483.303 232.12 477.389 229.196Z"/><path fill="#161616" transform="scale(2.10997 2.10997)" d="M456.532 218.186C458.593 217.373 458.133 218.034 460.191 218.927C461.626 219.549 462.987 220.331 464.248 221.258C465.735 222.344 467.665 222.56 467.864 224.243C464.053 222.576 460.103 220.345 456.532 218.186Z"/><path fill="white" transform="scale(2.10997 2.10997)" d="M459.488 250.209C479.82 264.646 500.026 279.261 520.102 294.052C523.563 289.31 526.982 284.537 530.359 279.735C532.329 282.808 534.851 287.066 537.282 289.615C537.959 290.971 537.72 292.486 537.681 293.988L538.103 293.689C538.204 291.22 537.788 291.603 539.073 290.178C542.845 288.721 549.498 289.463 553.987 289.28C554.254 291.289 554.765 296.588 555.588 298.063C556.269 296.898 556.108 296.635 556.229 295.197C557.923 314.795 558.648 334.622 560.093 354.253C560.254 356.436 560.527 359.408 560.4 361.541C558.81 363.805 559.572 367.738 559.852 370.572C531.212 391.913 523.726 430.565 541.835 461.055C544.267 465.149 547.175 468.552 549.616 472.474C546.417 470.385 532.655 459.317 530.899 458.76L529.984 459.19C534.798 463.484 541.45 468.614 546.634 472.473C545.457 473.994 543.233 475.523 542.931 477.082C543.748 478.553 545.192 478.883 546.823 479.589C542.166 485.251 537.858 491.131 533.155 496.735C528.733 494.951 524.942 493.398 520.365 491.993C519.664 480.07 520.708 464.557 518.993 453.081C517.84 445.361 513.346 431.528 510.973 423.614L498.001 380.313L459.488 250.209Z"/><path fill="#3D4449" transform="scale(2.10997 2.10997)" d="M537.282 289.615C537.959 290.971 537.72 292.486 537.681 293.988L538.103 293.689C538.204 291.22 537.788 291.603 539.073 290.178C542.845 288.721 549.498 289.463 553.987 289.28C554.254 291.289 554.765 296.588 555.588 298.063C556.269 296.898 556.108 296.635 556.229 295.197C557.923 314.795 558.648 334.622 560.093 354.253C560.254 356.436 560.527 359.408 560.4 361.541C558.81 363.805 559.572 367.738 559.852 370.572C531.212 391.913 523.726 430.565 541.835 461.055C544.267 465.149 547.175 468.552 549.616 472.474C546.417 470.385 532.655 459.317 530.899 458.76L529.984 459.19C529.103 458.627 527.824 457.485 526.976 456.782C527.089 447.839 527.199 429.517 528.469 421.26C528.256 415.477 529.599 402.229 530.114 396.051C530.586 378.771 532.575 357.943 533.768 340.54C534.899 324.049 535.787 305.868 537.282 289.615Z"/><path fill="#161616" transform="scale(2.10997 2.10997)" d="M530.114 396.051C530.296 395.962 530.499 395.818 530.7 395.815C530.698 395.809 531.234 397.35 531.138 396.712C531.802 401.125 531.201 405.842 530.682 410.254C530.321 413.323 530.816 416.795 529.468 419.658C528.993 420.659 529.399 423.497 529.18 424.781L529.152 424.512C528.873 425.531 528.869 425.256 528.929 425.602L528.859 425.611C528.634 425.41 528.515 421.737 528.469 421.26C528.256 415.477 529.599 402.229 530.114 396.051Z"/><path fill="#FC4D52" transform="scale(2.10997 2.10997)" d="M369.596 526.889C375.943 531.336 382.817 535.493 389.031 540.016L389.82 540.581C394.246 541.921 418.739 557.671 425.338 561.201C435.265 553.015 435.662 552.777 448.614 550.242L471.496 565.824C470.382 567.273 461.896 577.841 460.631 579.009C448.811 589.921 453.061 606.137 468.952 601.641C471.19 601.008 485.893 582.804 489.569 578.701C496.279 582.409 499.38 582.585 506.882 582.415C506.766 583.782 506.641 585.149 506.507 586.515C505.152 600.182 497.69 629.082 479.665 628.185C436.453 626.035 393.186 618.966 350.209 613.763C356.278 590.428 360.717 564.487 366.865 540.741L367.002 539.921C367.618 535.656 368.6 531.077 369.596 526.889Z"/><path fill="#FC4D52" transform="scale(2.10997 2.10997)" d="M369.596 526.889C375.943 531.336 382.817 535.493 389.031 540.016C382.084 539.733 373.896 539.13 367.002 539.921C367.618 535.656 368.6 531.077 369.596 526.889Z"/><path fill="white" transform="scale(2.10997 2.10997)" d="M367.002 539.921C373.896 539.13 382.084 539.733 389.031 540.016L389.82 540.581C387.683 542.078 368.353 542.024 366.865 540.741L367.002 539.921Z"/><path fill="#FC4D52" transform="scale(2.10997 2.10997)" d="M415.978 222.857C420.769 218.753 426.014 215.713 430.909 211.405C438.911 222.294 450.746 237.099 457.264 248.83C458.631 251.289 463.221 268.318 464.333 272.228L475.407 309.871C485.253 342.173 494.906 374.534 504.366 406.951C508.895 422.278 517.688 446.604 518.359 461.783C508.783 449.435 496.064 429.028 487.018 415.44L438.318 342.973C435.794 339.18 421.589 316.279 419.851 314.771C419.781 314.648 418.831 313.114 418.905 312.971C423.581 303.852 431.557 295.211 436.568 286.117L435.944 285.641L434.578 286.425C430.952 285.61 414.113 275.851 409.751 273.424C412.702 265.056 412.944 227.112 415.978 222.857Z"/><path fill="white" transform="scale(2.10997 2.10997)" d="M415.978 222.857C417.794 226.435 412.95 265.08 412.361 272.969C415.377 274.294 434.151 283.962 435.944 285.641L434.578 286.425C430.952 285.61 414.113 275.851 409.751 273.424C412.702 265.056 412.944 227.112 415.978 222.857Z"/><path fill="white" transform="scale(2.10997 2.10997)" d="M443.665 276.701L443.493 277.582C442.84 281.327 423.293 310.495 419.851 314.771C419.781 314.648 418.831 313.114 418.905 312.971C423.581 303.852 431.557 295.211 436.568 286.117C438.953 283.194 441.347 279.757 443.665 276.701Z"/><path fill="#3D4449" transform="scale(2.10997 2.10997)" d="M471.562 473.673C475.845 476.775 479.321 478.832 483.842 481.444C478.661 485.593 473.898 490.811 469.632 495.87C472.668 495.128 480.875 485.308 485.24 482.211C492.631 484.941 500.099 487.458 507.636 489.758C515.198 492.001 526.727 494.491 533.091 499.088C548.208 510.008 559.923 526.546 545.564 543.556C542.331 540.992 530.797 531.429 527.169 531.843C529.469 534.389 540.838 541.728 544.218 544.311C541.758 553.684 539.749 554.697 531.486 559.099C525.787 555.499 520.111 551.864 514.457 548.193L514.021 548.367C516.572 552.331 521.832 554.606 525.893 557.14C533.735 562.03 529.547 567.771 522.386 570.057C516.048 572.08 506.311 560.856 502.419 560.885C507.07 566.491 513.918 569.37 520.488 571.941C507.696 588.386 490.252 579.03 477.805 568.923C471.571 563.861 463.979 559.459 457.533 554.564C452.28 551.025 446.786 546.68 441.195 543.781C440.557 543.158 440.506 543.097 439.77 542.634C439.04 544.621 437.485 547.479 436.492 549.445C432.501 546.527 428.983 545.947 424.725 541.969C431.392 530.3 436.54 517.816 444.089 506.283C452.12 494.011 461.603 484.304 471.562 473.673Z"/><path fill="white" transform="scale(2.10997 2.10997)" d="M471.562 473.673C475.845 476.775 479.321 478.832 483.842 481.444C478.661 485.593 473.898 490.811 469.632 495.87C465.013 499.999 452.268 517.079 449.907 522.526C446.122 529.016 442.736 535.731 439.77 542.634C439.04 544.621 437.485 547.479 436.492 549.445C432.501 546.527 428.983 545.947 424.725 541.969C431.392 530.3 436.54 517.816 444.089 506.283C452.12 494.011 461.603 484.304 471.562 473.673Z"/><path fill="#080202" transform="scale(2.10997 2.10997)" d="M429.157 536.885C435.183 537.442 438.808 539.439 433.953 544.895C431.142 545.393 425.403 541.717 429.157 536.885Z"/><path fill="#080202" transform="scale(2.10997 2.10997)" d="M473.111 478.794C474.433 478.289 475.915 478.939 476.44 480.253C476.965 481.566 476.339 483.058 475.034 483.604C474.171 483.964 473.181 483.832 472.443 483.257C471.706 482.682 471.335 481.755 471.474 480.83C471.612 479.906 472.238 479.127 473.111 478.794Z"/><path fill="#080202" transform="scale(2.10997 2.10997)" d="M449.907 522.526C450.095 525.576 442.68 539.356 441.195 543.781C440.557 543.158 440.506 543.097 439.77 542.634C442.736 535.731 446.122 529.016 449.907 522.526Z"/><path fill="#FC4D52" transform="scale(2.10997 2.10997)" d="M623.108 234.142C628.221 236.927 634.582 241.384 639.77 244.469C647.276 249.129 655.061 252.888 661.758 258.736C681.959 276.378 685.482 297.738 688.771 322.646L693.378 359.131C694.844 370.768 697.377 385.604 698.112 396.885C696.521 398.991 692.97 406.491 691.402 409.375C684.351 422.346 678.733 429.048 668.163 439.083C667.953 435.501 668.314 430.899 668.277 427.144L667.841 395.884L666.956 320.422C666.919 312.502 667.436 281.091 665.872 276.142C664.908 279.847 665.298 295.022 665.324 299.839C665.324 314.229 665.464 328.619 665.743 343.007C657.95 334.422 650.334 325.679 642.899 316.782C636.385 324.864 628.214 333.327 621.091 341.026C625.701 324.804 631.343 309.143 635.946 292.329C632.082 290.245 624.471 284.947 620.322 282.336C625.825 277.264 631.369 272.039 637.122 267.269C632.322 256.282 627.651 245.239 623.108 234.142Z"/><path fill="#FC4D52" transform="scale(2.10997 2.10997)" d="M514.372 134.233C526.21 133.911 538.747 133.566 550.321 136.17C558.12 137.926 564.784 143.204 572.096 143.208C575.737 143.211 583.074 143.283 586.294 142.025C593.322 139.279 597.899 135.982 605.759 135.021C620.399 133.233 635.468 135.757 650.195 136.084L649.831 147.848C643.82 153.63 643.591 163.024 640.292 170.917C637.821 176.83 637.275 178.094 633.541 183.445C632.52 181.152 631.432 179.241 630.224 177.054C634.679 169.427 640.013 152.951 633.351 144.613C630.228 140.705 619.311 140.722 614.114 140.533C608.229 140.747 597.478 140.332 593.421 144.555C587.293 150.933 590.87 160.455 590.814 166.093L589.963 166.38C587.701 165.014 584.429 155.481 583.271 152.577C578.619 152.013 575.127 152.101 570.461 152.25C567.837 160.317 565.363 168.961 561.416 176.303C554.302 189.218 541.715 196.639 526.878 194.494C512.787 192.455 503.403 182.769 498.434 169.844C496.445 164.671 495.312 159.215 493.991 153.828C493.22 150.679 492.817 150.279 490.053 148.787L490 135.568C497.283 134.592 506.878 134.479 514.372 134.233Z"/><path fill="#080202" transform="scale(2.10997 2.10997)" d="M527.318 140.204C550.479 138.489 569.09 143.461 557.204 172.011C554.173 179.29 546.791 185.725 539.297 188.276C537.875 188.606 536.435 188.849 534.984 189.005C528.324 189.755 522.007 187.216 516.65 182.958C507.645 175.8 500.849 156.502 508.69 146.681C512.567 141.825 521.27 140.728 527.318 140.204Z"/><path fill="white" transform="scale(2.10997 2.10997)" d="M527.012 141.69C533.462 140.918 545.811 141.675 551.953 144.085C562.176 148.097 559.507 163.903 555.649 171.789C552.084 179.077 546.357 184.391 538.466 187.037C531.392 188.64 526.105 187.533 519.92 183.585C509.615 177.006 502.589 158.834 509.435 147.925C512.196 143.525 522.217 142.258 527.012 141.69Z"/><path fill="#080202" transform="scale(2.10997 2.10997)" d="M493.118 140.242C495.069 140.246 497.627 140.376 499.501 140.267C503.919 140.012 502.817 140.471 502.958 144.548C500.161 144.458 488.784 146.19 493.118 140.242Z"/><path fill="white" transform="scale(2.10997 2.10997)" d="M493.713 141.743C495.969 141.587 500.345 140.669 501.458 142.811C499.546 143.086 494.018 144.174 493.713 141.743Z"/><path fill="#080202" transform="scale(2.10997 2.10997)" d="M638.645 141.066C642.687 140.668 647.992 139.267 648.1 144.309C646.416 144.425 644.73 144.488 643.043 144.5C638.681 144.556 638.373 145.129 638.645 141.066Z"/><path fill="#D9DADB" transform="scale(2.10997 2.10997)" d="M639.534 142.218C640.771 142.083 645.531 141.071 645.257 142.948C643.192 143.1 640.398 144.14 639.534 142.218Z"/><path fill="#FC4D52" transform="scale(2.10997 2.10997)" d="M698.112 396.885C699.03 401.303 699.946 406.79 700.348 411.334C701.398 423.205 704.514 436.711 704.797 448.506C705.086 460.551 704.262 473.495 703.86 485.571L701.394 556.19L670.303 556.025C669.168 520.725 669.269 485.272 668.47 449.956C668.425 447.95 668.537 443.301 668.137 441.474C668.125 440.641 668.1 439.922 668.163 439.083C678.733 429.048 684.351 422.346 691.402 409.375C692.97 406.491 696.521 398.991 698.112 396.885Z"/><path fill="white" transform="scale(2.10997 2.10997)" d="M698.112 396.885C698.026 407.384 677.173 435.644 668.137 441.474C668.125 440.641 668.1 439.922 668.163 439.083C678.733 429.048 684.351 422.346 691.402 409.375C692.97 406.491 696.521 398.991 698.112 396.885Z"/><path fill="#FC4D52" transform="scale(2.10997 2.10997)" d="M616.553 228.177L618.319 227.166C619.398 227.76 633.327 263.042 634.779 267.028C629.786 271.252 622.352 277.885 617.807 282.531C620.758 284.324 633.685 291.351 633.936 294.059C628.427 315.859 619.718 337.726 613.587 359.016C605.462 357.218 599.04 357.531 590.924 358.096C590.779 347.688 591.205 336.877 591.355 326.427L592.428 257.99C597.81 250.267 609.522 233.668 616.553 228.177Z"/><path fill="white" transform="scale(2.10997 2.10997)" d="M616.553 228.177L618.319 227.166C619.398 227.76 633.327 263.042 634.779 267.028C629.786 271.252 622.352 277.885 617.807 282.531C620.758 284.324 633.685 291.351 633.936 294.059C631.949 294.406 617.275 284.836 614.314 283.124C617.474 278.662 627.382 270.417 631.999 266.35C627.856 255.719 619.68 238.006 616.553 228.177Z"/><path fill="white" transform="scale(2.10997 2.10997)" d="M431.277 209.734L433.043 205.292C438.272 208.168 443.502 211.11 448.837 213.778C450.101 214.759 455.156 217.718 456.532 218.186C460.103 220.345 464.053 222.576 467.864 224.243C469.981 225.691 474.972 228.284 477.389 229.196C483.303 232.12 489.577 235.721 495.602 238.289C499.07 240.182 505.571 242.869 509.36 244.215C522.048 249.803 530.172 252.892 543.233 257.376C539.465 264.794 525.143 284.314 519.759 291.793C506.85 281.659 491.709 271.942 478.476 261.97C473.173 257.501 464.012 252.712 459.589 247.519C449.506 235.678 441.33 221.725 431.277 209.734Z"/><path fill="white" transform="scale(2.10997 2.10997)" d="M572.135 291.529C578.467 281.225 584.624 270.746 591.045 260.515C590.893 292.657 589.081 326.295 589.461 358.197C578.009 360.839 571.365 363.702 561.114 369.468C560.793 366.79 560.44 364.245 560.4 361.541C560.527 359.408 560.254 356.436 560.093 354.253C558.648 334.622 557.923 314.795 556.229 295.197L555.768 290.942C557.919 286.722 560.159 282.107 562.486 278.015L572.135 291.529Z"/><path fill="white" transform="scale(2.10997 2.10997)" d="M568.823 486.357C574.051 489.393 582.719 491.721 588.624 493.188C589.299 501.407 589.429 511.838 589.477 520.134C583.275 526.446 577.933 533.071 572.256 539.846L569.254 537.007C564.243 532.252 556.633 525.069 552.784 519.515C550.827 516.69 548.306 511.691 546.094 508.244C550.406 503.391 555.428 496.153 559.374 490.765C565.28 493.731 567.647 493.122 568.823 486.357Z"/><path fill="#FC4D52" transform="scale(2.10997 2.10997)" d="M618.446 348.528C633.678 347.836 650.946 345.323 665.716 345.361C666.352 363.99 666.054 384.027 666.065 402.75L664.658 402.911C663.745 400.431 662.683 398.008 661.479 395.656C651.031 375.455 636.073 365.752 614.995 359.151L618.446 348.528Z"/><path fill="white" transform="scale(2.10997 2.10997)" d="M607.264 142.205C609.689 141.977 612.347 141.966 614.655 141.993C628.298 142.156 635.688 142.311 634.674 158.501C634.211 165.89 632.364 169.395 629.367 175.93C627.133 173.756 626.586 173.242 624.039 171.468C613.449 165.78 604.606 166.05 592.996 165.828C592.064 165.435 591.614 162.216 591.589 161.744C590.744 146.053 592.458 143.279 607.264 142.205Z"/><path fill="white" transform="scale(2.10997 2.10997)" d="M590.268 240.411C590.514 240.447 591.179 240.529 591.197 240.678C591.574 243.819 591.451 254.05 591.45 256.569C585.195 267.325 578.497 278.11 572.118 288.844C569.513 285.319 566.669 281.074 563.997 277.7C560.476 272.577 553.433 263.853 550.698 259.186L549.663 257.388C562.774 253.664 578.085 246.712 590.268 240.411Z"/><path fill="#FC4D52" transform="scale(2.10997 2.10997)" d="M448.55 135.571C460.404 134.99 476.022 135.562 488.442 135.371C488.42 139.783 488.431 144.196 488.473 148.608C481.959 148.804 475.67 149.088 469.125 149.151C462.986 149.195 456.306 149.089 450.224 149.604C449.894 149.632 450.387 150.538 450.731 150.551C450.927 150.559 452.151 151.379 452.078 151.726C451.449 154.744 449.602 158.354 448.24 161.145L447.755 160.548C440.564 151.827 437.298 142.24 448.55 135.571Z"/><path fill="#3D4449" transform="scale(2.10997 2.10997)" d="M642.874 319.313C644.174 320.239 648.4 325.916 649.875 327.605C654.531 332.935 659.145 338.303 664.063 343.413C656.635 343.924 648.361 344.44 641.031 345.28L640.121 345.378C633.131 345.789 626.154 346.387 619.196 347.17C623.823 338.389 633.687 330.405 640.611 322.072L642.874 319.313Z"/><path fill="#3D4449" transform="scale(2.10997 2.10997)" d="M546.172 257.345C546.348 257.367 548.249 257.559 548.355 257.716C551.742 262.724 554.997 267.869 558.687 272.688C559.747 274.07 560.558 275.249 561.558 276.681C559.857 280.477 557.402 283.946 555.5 287.839C552.245 287.992 549.13 287.975 545.875 287.984C543.213 288.006 540.551 287.98 537.889 287.905C535.252 284.3 533.995 282.239 530.985 278.587C533.14 274.799 543.233 260.663 546.172 257.345Z"/><path fill="#FC4D52" transform="scale(2.10997 2.10997)" d="M549.364 471.862C552.994 475.238 562.559 482.763 566.911 485.465C567.549 485.862 567.399 489.619 564.31 490.844C557.205 486.975 551.866 480.872 544.698 476.6C546.212 474.98 547.767 473.4 549.364 471.862Z"/><path fill="white" transform="scale(2.10997 2.10997)" d="M616.498 867.213C617.128 867.163 617.736 867.456 618.09 867.979C618.444 868.503 618.49 869.176 618.21 869.742C617.93 870.309 617.368 870.681 616.737 870.718C615.775 870.773 614.948 870.044 614.883 869.083C614.817 868.122 615.538 867.288 616.498 867.213Z"/><path fill="white" transform="scale(2.10997 2.10997)" d="M621.75 872.858C623.383 872.859 625.977 872.245 625.795 874.573L625.762 875.354C623.562 876.057 623.034 876.111 622.133 873.802L621.75 872.858Z"/><path fill="#E4635C" transform="scale(2.10997 2.10997)" d="M666.065 402.75C666.055 403.469 666.097 405.739 665.788 406.294C665.357 405.99 664.933 404.019 664.803 403.485L664.658 402.911L666.065 402.75Z"/></svg>