<?xml version="1.0" encoding="utf-8" ?><svg xmlns="http://www.w3.org/2000/svg" xmlns:xlink="http://www.w3.org/1999/xlink" width="2048" height="2048" viewBox="0 0 2048 2048"><path fill="white" d="M0 0L2048 0L2048 2048L0 2048L0 0Z"/><path fill="#020C1C" d="M963.012 141.224C1005.37 140.297 1048.79 141.436 1091.4 140.849L1102.34 149.523C1114.35 158.699 1127.58 168.435 1139.11 178.046C1139.02 189.436 1139.32 205.132 1138.52 216.136C1149 216.289 1159.79 216.32 1170.24 216.615L1170.13 308.433C1148.93 318.501 1124.95 328.205 1103.24 337.666C1099.89 342.693 1103.56 366.871 1101.19 373.501C1107.51 378.899 1133.49 403.14 1138.64 404.721C1165.2 412.867 1194.43 418.899 1221.3 426.384C1237.74 431.226 1255.08 434.873 1271.58 439.645C1273.13 440.094 1274.06 440.106 1275.65 440.78C1285.79 443.526 1295.97 446.159 1306.17 448.678C1305.58 455.413 1302.36 502.389 1301.06 504.681C1300.93 510.02 1302.25 515.178 1303.82 520.248C1330.2 605.437 1352.08 693.509 1378.76 778.403C1340.75 832.005 1301.32 885.853 1264.08 939.772C1278.59 983.669 1297.57 1028 1311.78 1071.56C1310.78 1072.69 1311.34 1072.53 1310.37 1072.6C1301.75 1073.29 1225.29 1073.69 1218.01 1072.35C1217.16 1070.49 1216.38 1071.22 1214.73 1071.87C1212.52 1069.06 1212.17 1010.88 1211.59 1002.6C1210.72 1001.99 1210.01 1001.13 1209.24 1000.34C1209.42 997.154 1212.85 993.973 1215.11 991.321C1201.1 968.657 1177.71 929.168 1165.81 905.602C1120.81 905.857 1070.21 904.366 1025.77 906.242L1022.95 906.426C1012.23 905.367 989.999 906.012 978.511 906.025L889.302 905.977C871.724 931.37 856.277 966.094 839.093 992.29C845.581 999.6 844.361 997.809 840.926 1007.73C840.315 1009.49 840.33 1014.95 840.306 1017.01C840.262 1025.45 840.121 1067.79 837.825 1072.86C836.83 1073.28 835.447 1073.93 834.455 1074.23L833.475 1072.45C833.318 1078.53 834.328 1111.51 832.338 1113.71C831.775 1101.54 832.263 1085.61 832.276 1073.14C810.692 1073.25 782.611 1074.17 761.617 1073.02L739.814 1073.35C755.96 1029.39 773.275 984.842 789.97 941C752.659 889.166 708.174 831.047 673.208 778.471C678.439 754.165 690.872 715.686 698.074 691.048L746.001 527.999C756.299 496.79 745.445 481.388 746.413 450.095C747.906 447.5 748.955 448.055 752.93 446.928C783.276 438.866 813.684 431.037 844.151 423.442C868.085 417.396 893.216 410.642 917.243 405.327C928.572 394.816 940.097 384.52 951.812 374.442L951.869 338.359C929.854 328.792 907.974 318.917 886.236 308.739L886.195 216.367C897.45 216.402 908.705 216.33 919.958 216.151L919.791 178.372C927.446 171.512 935.239 164.807 943.166 158.262C949.66 152.339 956.277 146.856 963.012 141.224Z"/><path fill="#020C1C" d="M1275.65 440.78C1285.79 443.526 1295.97 446.159 1306.17 448.678C1305.58 455.413 1302.36 502.389 1301.06 504.681C1300.93 510.02 1302.25 515.178 1303.82 520.248C1330.2 605.437 1352.08 693.509 1378.76 778.403C1340.75 832.005 1301.32 885.853 1264.08 939.772C1278.59 983.669 1297.57 1028 1311.78 1071.56C1310.78 1072.69 1311.34 1072.53 1310.37 1072.6C1301.75 1073.29 1225.29 1073.69 1218.01 1072.35C1217.16 1070.49 1216.38 1071.22 1214.73 1071.87C1212.52 1069.06 1212.17 1010.88 1211.59 1002.6C1210.72 1001.99 1210.01 1001.13 1209.24 1000.34C1209.42 997.154 1212.85 993.973 1215.11 991.321C1201.1 968.657 1177.71 929.168 1165.81 905.602C1120.81 905.857 1070.21 904.366 1025.77 906.242L1022.95 906.426C1012.23 905.367 989.999 906.012 978.511 906.025L889.302 905.977C871.724 931.37 856.277 966.094 839.093 992.29C845.581 999.6 844.361 997.809 840.926 1007.73C840.315 1009.49 840.33 1014.95 840.306 1017.01C840.262 1025.45 840.121 1067.79 837.825 1072.86C836.83 1073.28 835.447 1073.93 834.455 1074.23L833.475 1072.45C833.318 1078.53 834.328 1111.51 832.338 1113.71C831.775 1101.54 832.263 1085.61 832.276 1073.14C810.692 1073.25 782.611 1074.17 761.617 1073.02L739.814 1073.35C755.96 1029.39 773.275 984.842 789.97 941C752.659 889.166 708.174 831.047 673.208 778.471C678.439 754.165 690.872 715.686 698.074 691.048L746.001 527.999L748.844 528C752.322 516.785 754.963 506.215 758.216 495.159C770.416 514.825 782.187 540.163 792.601 561.259C801.18 578.75 812.575 600.41 819.373 618.318C822.813 627.38 826.376 646.238 829.369 656.748C818.566 684.548 807.048 713.206 796.807 741.169C794.711 748.211 793.59 751.622 790.05 758.169L825.569 815.824C830.464 823.722 840.359 838.603 844.359 846.397C845.628 844.288 845.634 844.103 846.425 841.669C855.561 849.712 863 857.215 871.522 865.705C885.334 852.898 900.212 839.188 914.646 827.105C913.615 832.255 912.737 832.107 913.372 837.091C911.042 845.846 903.072 857.161 900.743 865.838C937.126 865.718 977.928 864.711 1013.97 865.693C1015.42 866.443 1015.99 866.514 1017.05 867.615C1020.03 871.805 1023.06 876.243 1026.25 880.261C1028.64 876.549 1032.13 870.357 1035.45 867.884L1036.04 866.178C1058.74 865.28 1083.37 865.732 1106.29 865.552C1117.46 865.464 1142.26 865.077 1152.68 866.194C1149.85 857.442 1143.82 848.563 1141.57 841.116C1142.44 833.641 1138.78 833.433 1137.85 826.983L1137.51 825.083C1151.83 838.188 1167.22 851.046 1181.26 864.332C1187.8 858.382 1194.03 853.129 1200.55 847.009C1208.36 840.548 1210.24 837.878 1215.64 829.742C1212.95 819.182 1198.79 764.864 1199.49 757.741C1201.11 741.278 1213.32 697.634 1217.67 679.376C1229.41 628.931 1241.6 578.594 1254.26 528.371C1260.78 501.852 1267.08 474.206 1274.3 447.965L1276.57 450.489C1277.04 448.225 1277.49 446.471 1278.14 444.255C1276.98 442.828 1276.56 442.368 1275.65 440.78Z"/><path fill="#038DE5" d="M758.216 495.159C770.416 514.825 782.187 540.163 792.601 561.259C801.18 578.75 812.575 600.41 819.373 618.318C822.813 627.38 826.376 646.238 829.369 656.748C818.566 684.548 807.048 713.206 796.807 741.169C794.711 748.211 793.59 751.622 790.05 758.169L825.569 815.824C830.464 823.722 840.359 838.603 844.359 846.397C845.199 847.405 845.974 848.353 846.874 849.313C851.244 858.08 878.424 901.774 884.876 908.538C865.22 929.413 837.77 953.907 816.416 974.051C771.421 908.716 722.198 842.97 675.957 777.996C699.795 694.532 724.091 611.199 748.844 528C752.322 516.785 754.963 506.215 758.216 495.159Z"/><path fill="#131B22" d="M718.7 756.053C733.698 750.589 745.927 746.076 761.999 743.736C773.516 741.966 785.154 741.108 796.807 741.169C794.711 748.211 793.59 751.622 790.05 758.169C765.865 756.483 744.438 756.529 720.353 761.043L718.7 756.053Z"/><path fill="#092943" d="M692.585 768.584C701.063 763.949 709.78 759.766 718.7 756.053L720.353 761.043C710.985 763.529 701.92 766.054 692.585 768.584Z"/><path fill="#038DE5" d="M1295.1 495.439C1295.83 500.433 1296.98 504.973 1298.14 509.872C1323.95 598.536 1351.44 689.326 1375.84 778.215C1330.9 841.679 1280.05 908.907 1238.06 973.694C1215.17 952.445 1192.62 929.848 1170.02 908.123C1200.26 862.618 1233.93 805.134 1262.76 757.8C1261.79 757.327 1260.93 756.982 1259.94 756.569L1259.77 756.274C1258.37 753.87 1258.05 753.648 1257.52 751.125C1258.82 746.524 1257.82 746.166 1256.55 741.316C1248.6 716.187 1235.28 681.542 1225.73 656.774C1228.42 645.525 1232.56 625.826 1236.52 615.395C1241.14 603.24 1249.21 587.072 1254.9 575.017C1266.44 551.313 1282.05 517.17 1295.1 495.439Z"/><path fill="#131B22" d="M1256.55 741.316C1286.19 741.096 1310.6 744.335 1338.01 756.553C1332.69 757.222 1333.45 756.306 1329.68 759.915C1313.8 758.943 1298.56 755.647 1282.18 757.068C1276.94 757.523 1267.65 758.089 1262.76 757.8C1261.79 757.327 1260.93 756.982 1259.94 756.569L1259.77 756.274C1258.37 753.87 1258.05 753.648 1257.52 751.125C1258.82 746.524 1257.82 746.166 1256.55 741.316Z"/><path fill="#092943" d="M1338.01 756.553C1347.09 760.396 1353.74 763.716 1362.17 768.735C1350.32 764.901 1341.48 762.953 1329.68 759.915C1333.45 756.306 1332.69 757.222 1338.01 756.553Z"/><path fill="#038DE5" d="M1035.45 867.884C1044.56 868.893 1064.35 868.431 1073.84 868.431C1096.24 868.365 1118.63 868.418 1141.03 868.591C1148 880.118 1155.15 891.542 1162.46 902.86C1069.38 904.264 973.95 903.031 880.65 903.131C887.223 891.57 893.615 879.905 899.822 868.143L976.182 868.431C985.994 868.445 1008.12 868.972 1017.05 867.615C1020.03 871.805 1023.06 876.243 1026.25 880.261C1028.64 876.549 1032.13 870.357 1035.45 867.884Z"/><path fill="#038DE5" d="M792.161 944.036C799.463 954.268 807.825 968.059 815.901 977.234C819.909 978.004 817.577 975.016 822.135 974.673C828.711 982.201 835.123 990.926 841.24 998.907C840.175 1001.53 837.918 1002.39 835.167 1004.39L838.962 1004.66C841.061 1008.38 839.979 1012.18 840.306 1017.01C840.262 1025.45 840.121 1067.79 837.825 1072.86C836.83 1073.28 835.447 1073.93 834.455 1074.23L833.475 1072.45C833.318 1078.53 834.328 1111.51 832.338 1113.71C831.775 1101.54 832.263 1085.61 832.276 1073.14C810.692 1073.25 782.611 1074.17 761.617 1073.02C755.832 1071.37 751.559 1071.55 745.58 1071.36C750.868 1067.42 756.181 1063.59 761.141 1059.24L760.899 1057.45L744.096 1068.79C755.033 1041.91 764.856 1013.23 775.563 986.16C781.066 972.247 785.746 957.534 792.161 944.036Z"/><path fill="#131B22" d="M835.167 1004.39L838.962 1004.66C841.061 1008.38 839.979 1012.18 840.306 1017.01C840.262 1025.45 840.121 1067.79 837.825 1072.86C836.83 1073.28 835.447 1073.93 834.455 1074.23L833.475 1072.45C833.318 1078.53 834.328 1111.51 832.338 1113.71C831.775 1101.54 832.263 1085.61 832.276 1073.14C810.692 1073.25 782.611 1074.17 761.617 1073.02C755.832 1071.37 751.559 1071.55 745.58 1071.36C750.868 1067.42 756.181 1063.59 761.141 1059.24L760.899 1057.45C764.518 1054.08 782.463 1041.65 787.374 1038.22C803.021 1027.29 819.333 1014.82 835.167 1004.39Z"/><path fill="white" d="M1217.81 826.192C1214.49 814.031 1200.14 762.322 1202.33 753.016C1209.21 723.695 1217.44 690.571 1224.61 661.076C1236.44 690.191 1245.67 721.913 1257.52 751.125C1258.05 753.648 1258.37 753.87 1259.77 756.274L1259.94 756.569C1257.74 761.774 1248.62 775.964 1245.18 781.487C1235.83 796.248 1226.71 811.152 1217.81 826.192Z"/><path fill="#131B22" d="M1211.59 1002.6C1214.01 1003.7 1214.44 1004.13 1216.63 1005.74C1232.88 1017.7 1249.86 1030.03 1266.09 1041.8C1270.22 1044.8 1303.17 1068.24 1303.75 1069.48C1303.38 1071.17 1297.13 1071.33 1295.93 1071.5C1301.36 1071.94 1304.87 1071.3 1310.37 1072.6C1301.75 1073.29 1225.29 1073.69 1218.01 1072.35C1217.16 1070.49 1216.38 1071.22 1214.73 1071.87C1212.52 1069.06 1212.17 1010.88 1211.59 1002.6Z"/><path fill="#038DE5" d="M1275.65 440.78C1285.79 443.526 1295.97 446.159 1306.17 448.678C1305.58 455.413 1302.36 502.389 1301.06 504.681L1298.14 509.872C1296.98 504.973 1295.83 500.433 1295.1 495.439C1282.05 517.17 1266.44 551.313 1254.9 575.017L1251.82 571.656L1251.51 571.936C1249.75 571.474 1248.39 571.11 1246.6 570.788C1249.9 560.327 1252.65 546.386 1255.44 535.554C1262.69 507.382 1268.72 478.498 1276.57 450.489C1277.04 448.225 1277.49 446.471 1278.14 444.255C1276.98 442.828 1276.56 442.368 1275.65 440.78Z"/><path fill="#131B22" d="M1275.65 440.78C1285.79 443.526 1295.97 446.159 1306.17 448.678C1305.58 455.413 1302.36 502.389 1301.06 504.681L1298.14 509.872C1296.98 504.973 1295.83 500.433 1295.1 495.439C1282.05 517.17 1266.44 551.313 1254.9 575.017L1251.82 571.656C1258.65 553.035 1266.02 534.594 1272.85 515.812C1280.72 494.145 1288.86 470.409 1297.82 449.396C1291.28 447.619 1284.71 445.905 1278.14 444.255C1276.98 442.828 1276.56 442.368 1275.65 440.78Z"/><path fill="#131B22" d="M1137.51 825.083C1151.83 838.188 1167.22 851.046 1181.26 864.332C1187.8 858.382 1194.03 853.129 1200.55 847.009C1200.97 850.264 1202.32 850.969 1200.91 853.409C1192.45 868.079 1183.33 882.345 1174.22 896.627C1171.92 900.633 1170.63 905.022 1165.19 902.639C1163.69 900.47 1160.46 895.4 1159.16 893.422C1153.97 885.554 1149.7 877.618 1144.6 869.723C1142.92 867.119 1149.79 869.589 1152.68 866.194C1149.85 857.442 1143.82 848.563 1141.57 841.116C1142.44 833.641 1138.78 833.433 1137.85 826.983L1137.51 825.083Z"/><path fill="#131B22" d="M914.646 827.105C913.615 832.255 912.737 832.107 913.372 837.091C911.042 845.846 903.072 857.161 900.743 865.838C900.097 864.879 900.118 864.533 899.331 863.827C899.813 863.359 881.683 896.893 880.82 898.607L880.397 899.427C876.328 891.987 851.992 851.583 846.874 849.313C845.974 848.353 845.199 847.405 844.359 846.397C845.628 844.288 845.634 844.103 846.425 841.669C855.561 849.712 863 857.215 871.522 865.705C885.334 852.898 900.212 839.188 914.646 827.105Z"/><path fill="#0B8EDB" d="M1246.6 570.788C1248.39 571.11 1249.75 571.474 1251.51 571.936C1248.87 579.523 1243.14 593.376 1239.42 600.306C1241.69 590.602 1244.58 580.462 1246.6 570.788Z"/><path fill="#038DE5" d="M1232.26 972.397C1234.45 974.337 1236.72 977.229 1238.85 977.13C1246.46 965.682 1254.16 954.295 1261.96 942.971C1277.01 983.333 1294.46 1028.18 1307.93 1068.8C1277.53 1047.79 1241.7 1019.14 1211.55 999.815C1217.41 992.463 1227.06 981.078 1231.86 973.456L1232.26 972.397Z"/><path fill="#131B22" d="M1179.13 922.464C1188.74 928.715 1197.47 938.191 1205.82 946.204C1209.46 949.7 1231.83 970 1232.26 972.397L1231.86 973.456C1227.78 974.104 1226.04 978.212 1222.63 982.333L1216.46 989.669L1215.68 988.143C1204.89 967.501 1187.89 943.159 1179.13 922.464Z"/><path fill="#131B22" d="M872.271 924.783C874.114 925.838 874.798 925.755 873.481 927.888C867.513 937.554 862.082 947.479 856.532 957.363L853.962 961.975C848.561 971.498 843.267 981.108 837.875 990.645C836.233 988.432 835.335 986.652 833.365 984.655L832.164 983.411C828.988 978.453 827.231 975.718 823.018 971.437C839.669 956.369 855.625 939.499 872.271 924.783Z"/><path fill="#038DE5" d="M1026.82 367.833C1052.15 356.463 1077.87 346.123 1102.98 334.844L1103.24 337.666C1099.89 342.693 1103.56 366.871 1101.19 373.501C1107.51 378.899 1133.49 403.14 1138.64 404.721C1165.2 412.867 1194.43 418.899 1221.3 426.384C1237.74 431.226 1255.08 434.873 1271.58 439.645C1273.13 440.094 1274.06 440.106 1275.65 440.78C1276.56 442.368 1276.98 442.828 1278.14 444.255C1277.49 446.471 1277.04 448.225 1276.57 450.489L1274.3 447.965C1267.08 474.206 1260.78 501.852 1254.26 528.371C1241.6 578.594 1229.41 628.931 1217.67 679.376C1213.32 697.634 1201.11 741.278 1199.49 757.741C1198.79 764.864 1212.95 819.182 1215.64 829.742C1210.24 837.878 1208.36 840.548 1200.55 847.009C1194.03 853.129 1187.8 858.382 1181.26 864.332C1167.22 851.046 1151.83 838.188 1137.51 825.083L1137.85 826.983C1138.78 833.433 1142.44 833.641 1141.57 841.116C1143.82 848.563 1149.85 857.442 1152.68 866.194C1142.26 865.077 1117.46 865.464 1106.29 865.552C1083.37 865.732 1058.74 865.28 1036.04 866.178L1035.45 867.884C1032.13 870.357 1028.64 876.549 1026.25 880.261C1023.06 876.243 1020.03 871.805 1017.05 867.615C1015.99 866.514 1015.42 866.443 1013.97 865.693C1014.35 862.441 990.536 831.161 986.384 825.589L1008.22 593.459C1011.7 556.24 1016.13 516.154 1018.46 479.042C1014.21 474.547 1002.29 462.785 999.782 458.324L1000.44 457.253L998.83 455.308C1000.87 452.783 1014.66 439.376 1015.12 438.129C1014.87 436.788 1013.59 435.905 1012.82 434.852C1002.44 426.422 988.063 414.391 978.004 405.474C975.022 402.728 962.159 391.952 960.605 389.677C959.56 385.781 954.348 380.7 954.279 380.267C952.394 368.451 957.619 344.873 951.468 334.976C976.817 345.925 1001.18 357.353 1026.82 367.833Z"/><path fill="white" d="M1014.25 432.204C1019.58 431.62 1032.97 431.939 1038.82 432.004C1035.73 434.552 1036.81 433.029 1035.37 436.689C1036.48 443.919 1050.04 451.848 1054.81 459.425C1062.76 467.184 1071.74 476.37 1079.86 483.761C1080.47 484.629 1080.44 484.588 1081.39 485.091C1083.57 487.586 1083.81 487.961 1086.55 490.045C1088.34 486.719 1094.37 464.176 1095.88 458.807C1096.71 456.161 1096.96 453.421 1098.74 452.248C1099.28 455.732 1099.31 456.375 1099.26 459.911L1099.14 670.699C1099.12 680.325 1098.11 743.234 1099.48 746.457C1112.01 775.948 1126.7 812.667 1141.57 841.116C1143.82 848.563 1149.85 857.442 1152.68 866.194C1142.26 865.077 1117.46 865.464 1106.29 865.552C1083.37 865.732 1058.74 865.28 1036.04 866.178L1035.45 867.884C1032.13 870.357 1028.64 876.549 1026.25 880.261C1023.06 876.243 1020.03 871.805 1017.05 867.615C1015.99 866.514 1015.42 866.443 1013.97 865.693C1014.35 862.441 990.536 831.161 986.384 825.589L1008.22 593.459C1011.7 556.24 1016.13 516.154 1018.46 479.042C1014.21 474.547 1002.29 462.785 999.782 458.324L1000.44 457.253L998.83 455.308C1000.87 452.783 1014.66 439.376 1015.12 438.129C1014.87 436.788 1013.59 435.905 1012.82 434.852C1014.12 433.842 1014.68 433.913 1014.25 432.204Z"/><path fill="#131B22" d="M1014.25 432.204C1019.58 431.62 1032.97 431.939 1038.82 432.004C1035.73 434.552 1036.81 433.029 1035.37 436.689C1036.48 443.919 1050.04 451.848 1054.81 459.425C1048.68 465.324 1040.84 472.485 1035.32 478.743L1066.23 825.372L1036.04 866.178L1035.45 867.884C1032.13 870.357 1028.64 876.549 1026.25 880.261C1023.06 876.243 1020.03 871.805 1017.05 867.615C1015.99 866.514 1015.42 866.443 1013.97 865.693C1014.35 862.441 990.536 831.161 986.384 825.589L1008.22 593.459C1011.7 556.24 1016.13 516.154 1018.46 479.042C1014.21 474.547 1002.29 462.785 999.782 458.324L1000.44 457.253L998.83 455.308C1000.87 452.783 1014.66 439.376 1015.12 438.129C1014.87 436.788 1013.59 435.905 1012.82 434.852C1014.12 433.842 1014.68 433.913 1014.25 432.204Z"/><path fill="#020C1C" d="M1026.82 367.833C1052.15 356.463 1077.87 346.123 1102.98 334.844L1103.24 337.666C1099.89 342.693 1103.56 366.871 1101.19 373.501C1107.51 378.899 1133.49 403.14 1138.64 404.721C1165.2 412.867 1194.43 418.899 1221.3 426.384L1217.29 428.391C1200.79 423.09 1174.41 417.061 1157 412.594C1153.55 414.959 1152.52 413.762 1149.11 416.451C1158.84 425.406 1171.38 436.337 1180.45 445.61C1167.98 451.312 1155.58 457.2 1143.28 463.271C1159.82 474.735 1180.03 488.982 1197.17 499.558C1187.96 525.193 1176.38 552.588 1166.38 578.192L1101.36 746.614L1125.19 799.224C1127.08 803.384 1135.54 822.361 1137.51 825.083L1137.85 826.983C1138.78 833.433 1142.44 833.641 1141.57 841.116C1126.7 812.667 1112.01 775.948 1099.48 746.457C1098.11 743.234 1099.12 680.325 1099.14 670.699L1099.26 459.911C1099.31 456.375 1099.28 455.732 1098.74 452.248C1096.96 453.421 1096.71 456.161 1095.88 458.807C1094.37 464.176 1088.34 486.719 1086.55 490.045C1083.81 487.961 1083.57 487.586 1081.39 485.091C1080.44 484.588 1080.47 484.629 1079.86 483.761C1071.74 476.37 1062.76 467.184 1054.81 459.425C1050.04 451.848 1036.48 443.919 1035.37 436.689C1036.81 433.029 1035.73 434.552 1038.82 432.004C1032.97 431.939 1019.58 431.62 1014.25 432.204C1014.68 433.913 1014.12 433.842 1012.82 434.852C1002.44 426.422 988.063 414.391 978.004 405.474C975.022 402.728 962.159 391.952 960.605 389.677C959.56 385.781 954.348 380.7 954.279 380.267C952.394 368.451 957.619 344.873 951.468 334.976C976.817 345.925 1001.18 357.353 1026.82 367.833Z"/><path fill="#131B22" d="M1026.82 367.833C1052.15 356.463 1077.87 346.123 1102.98 334.844L1103.24 337.666C1099.89 342.693 1103.56 366.871 1101.19 373.501C1099.85 378.445 1099.58 379.157 1096.82 383.461L1097.54 384.426C1094.96 387.697 1085.27 396.252 1081.9 398.284C1079.08 398.522 1078.5 398.205 1076.36 399.857C1071.51 403.737 1064.39 410.142 1059.62 414.391C1059.78 404.545 1060.59 389.621 1060.22 380.299C1059.93 376.02 1059.89 372.282 1059.87 368.011L1058.5 367.235C1056.91 378.108 1056.98 404.871 1056.96 416.57C1051.78 421.315 1044.35 427.747 1038.82 432.004C1032.97 431.939 1019.58 431.62 1014.25 432.204C1014.68 433.913 1014.12 433.842 1012.82 434.852C1002.44 426.422 988.063 414.391 978.004 405.474C975.022 402.728 962.159 391.952 960.605 389.677C959.56 385.781 954.348 380.7 954.279 380.267C952.394 368.451 957.619 344.873 951.468 334.976C976.817 345.925 1001.18 357.353 1026.82 367.833Z"/><path fill="#038DE5" d="M979.342 361.558C983.062 363.575 987.484 366.155 991.168 368.3L993.927 369.824C1001.01 374.657 1013.02 381.695 1020.57 385.984C1033.18 379.475 1046.11 373.605 1058.5 367.235C1056.91 378.108 1056.98 404.871 1056.96 416.57C1051.78 421.315 1044.35 427.747 1038.82 432.004C1032.97 431.939 1019.58 431.62 1014.25 432.204C1014.68 433.913 1014.12 433.842 1012.82 434.852C1002.44 426.422 988.063 414.391 978.004 405.474L979.087 402.715C979.873 397.168 979.337 368.969 979.342 361.558Z"/><path fill="#038DE5" d="M979.342 361.558C983.062 363.575 987.484 366.155 991.168 368.3L990.632 412.406C986.832 409.151 982.771 405.967 979.087 402.715C979.873 397.168 979.337 368.969 979.342 361.558Z"/><path fill="#000D37" d="M991.168 368.3L993.927 369.824L993.57 415.043C1000.54 420.787 1007.12 426.579 1014.25 432.204C1014.68 433.913 1014.12 433.842 1012.82 434.852C1002.44 426.422 988.063 414.391 978.004 405.474L979.087 402.715C982.771 405.967 986.832 409.151 990.632 412.406L991.168 368.3Z"/><path fill="#038DE5" d="M1060.91 366.281C1066.24 363.877 1070.98 362.019 1076.28 359.759L1076.36 399.857C1071.51 403.737 1064.39 410.142 1059.62 414.391C1059.78 404.545 1060.59 389.621 1060.22 380.299C1060.77 375.352 1060.81 371.23 1060.91 366.281Z"/><path fill="white" d="M1097.54 384.426C1100.74 388.437 1099.65 431.139 1099.07 437.512C1098.36 445.173 1088.44 476.439 1085.8 486.066C1069.69 470.066 1053.02 453.429 1036.74 437.709C1048.66 427.789 1071.21 408.735 1081.9 398.284C1085.27 396.252 1094.96 387.697 1097.54 384.426Z"/><path fill="#0B8EDB" d="M1139.37 407.653C1145.24 409.302 1151.14 410.911 1157 412.594C1153.55 414.959 1152.52 413.762 1149.11 416.451C1145.9 413.486 1142.6 410.62 1139.37 407.653Z"/><path fill="#038DE5" d="M1101.97 377.583C1126.31 399.419 1151.62 423.531 1175.81 444.779C1163.6 450.473 1149.94 457.229 1137.67 462.445C1151.85 473.545 1178.25 491.277 1193.86 500.998C1175.16 547.115 1156.95 593.432 1139.24 639.94C1128.47 667.732 1114.75 700.621 1105.23 728.487C1099.62 743.91 1101.78 719.407 1101.9 715.727C1100.78 618.735 1102.74 521.395 1101.86 424.369C1101.72 408.824 1101.75 393.122 1101.97 377.583Z"/><path fill="#0B8EDB" d="M1101.9 715.727C1102.69 720.812 1103.27 723.784 1105.23 728.487C1099.62 743.91 1101.78 719.407 1101.9 715.727Z"/><path fill="#000D37" d="M1221.3 426.384C1237.74 431.226 1255.08 434.873 1271.58 439.645C1273.13 440.094 1274.06 440.106 1275.65 440.78C1276.56 442.368 1276.98 442.828 1278.14 444.255C1277.49 446.471 1277.04 448.225 1276.57 450.489L1274.3 447.965C1275.64 443.473 1275.69 443.583 1271.01 442.343C1259.89 439.394 1248.72 436.555 1237.58 433.66C1230.88 431.918 1224.06 429.829 1217.29 428.391L1221.3 426.384Z"/><path fill="#131B22" d="M963.012 141.224C1005.37 140.297 1048.79 141.436 1091.4 140.849L1102.34 149.523C1114.35 158.699 1127.58 168.435 1139.11 178.046C1139.02 189.436 1139.32 205.132 1138.52 216.136C1149 216.289 1159.79 216.32 1170.24 216.615L1170.13 308.433C1148.93 318.501 1124.95 328.205 1103.24 337.666L1102.98 334.844C1077.87 346.123 1052.15 356.463 1026.82 367.833C1001.18 357.353 976.817 345.925 951.468 334.976L888.972 307.492L888.914 218.994C899.214 219.02 909.513 218.984 919.812 218.885C919.899 227.211 922.331 230.343 915.132 235.051L922.421 233.203C922.831 216.818 922.664 196.229 922.406 179.767C929.574 173.702 938.31 166.428 945.273 160.277L943.166 158.262C949.66 152.339 956.277 146.856 963.012 141.224Z"/><path fill="#038DE5" d="M1102.34 149.523C1114.35 158.699 1127.58 168.435 1139.11 178.046C1139.02 189.436 1139.32 205.132 1138.52 216.136C1149 216.289 1159.79 216.32 1170.24 216.615L1170.13 308.433C1148.93 318.501 1124.95 328.205 1103.24 337.666L1102.98 334.844C1077.87 346.123 1052.15 356.463 1026.82 367.833C1001.18 357.353 976.817 345.925 951.468 334.976L888.972 307.492L888.914 218.994C899.214 219.02 909.513 218.984 919.812 218.885C919.899 227.211 922.331 230.343 915.132 235.051C914.836 254.047 914.794 273.047 915.004 292.045C934.642 300.538 954.171 309.281 973.585 318.274C1004.13 332.22 1026.13 346.652 1059.68 328.403C1086.01 314.073 1116.54 303.567 1143.4 289.163C1143.39 272.45 1142.7 250.61 1143.46 234.333C1130.96 233.375 1113.14 235.872 1100.49 233.857C1100.5 207.221 1100.83 178.539 1100.09 152.028C1100.61 151.108 1101.54 150.331 1102.34 149.523Z"/><path fill="#038DE5" d="M1100.09 152.028C1103.79 153.033 1131.22 175.317 1136.74 179.293C1136.14 197.248 1135.86 215.212 1135.88 233.177C1127.5 233.157 1107.69 232.653 1100.49 233.857C1100.5 207.221 1100.83 178.539 1100.09 152.028Z"/><path fill="#020C1C" d="M1102.34 149.523C1114.35 158.699 1127.58 168.435 1139.11 178.046C1139.02 189.436 1139.32 205.132 1138.52 216.136C1149 216.289 1159.79 216.32 1170.24 216.615L1170.13 308.433C1148.93 318.501 1124.95 328.205 1103.24 337.666L1102.98 334.844C1124.51 325.351 1146.15 316.107 1167.9 307.111C1167.71 277.796 1167.69 248.48 1167.84 219.165L1138.5 218.994C1138.2 227.136 1135.99 231.019 1143.46 234.333C1130.96 233.375 1113.14 235.872 1100.49 233.857C1107.69 232.653 1127.5 233.157 1135.88 233.177C1135.86 215.212 1136.14 197.248 1136.74 179.293C1131.22 175.317 1103.79 153.033 1100.09 152.028C1100.61 151.108 1101.54 150.331 1102.34 149.523Z"/><path fill="#038DE5" d="M945.273 160.277C947.524 158.174 949.834 156.136 952.202 154.166L952.279 233.542C942.715 233.561 931.84 233.768 922.421 233.203C922.831 216.818 922.664 196.229 922.406 179.767C929.574 173.702 938.31 166.428 945.273 160.277Z"/><path fill="#038DE5" d="M983.104 143.354C1011.47 144.062 1042.63 143.921 1071.06 143.748C1070.93 173.627 1070.96 203.506 1071.15 233.385C1041.74 233.179 1012.33 233.167 982.918 233.35C982.924 206.953 981.656 168.553 983.104 143.354Z"/><path fill="#038DE5" d="M965.12 143.285L967.06 143.018C969.192 142.675 970.096 142.401 971.964 143.555C972.963 170.448 971.521 198.983 972.067 225.988C971.905 228.312 972.677 230.545 971.482 232.629C970.56 234.237 965.659 233.687 965.63 232.767C964.722 203.549 964.62 172.723 965.12 143.285Z"/><path fill="#092943" d="M965.12 143.285L967.06 143.018C969.192 142.675 970.096 142.401 971.964 143.555C970.052 143.977 968.903 144.034 967.004 143.637L965.12 143.285Z"/><path fill="#038DE5" d="M1084.9 142.492C1085.42 142.657 1089.02 143.531 1088.93 144.6C1088.03 155.538 1091.44 229.246 1087.86 233.603L1086.9 234.79C1086.54 234.621 1082.6 232.929 1082.59 232.62C1081.69 204.093 1082.46 175.141 1082.12 146.482C1082.09 144.126 1083.09 143.864 1084.9 142.492Z"/><path fill="#038DE5" d="M912.838 408.523C904.959 415.337 876.344 441.914 869.847 445.608C883.436 451.606 897.07 457.503 910.747 463.3C891.837 474.89 873.163 486.863 854.738 499.211C865.081 522.943 875.697 551.954 885.258 576.352C907.155 633.058 929.428 689.619 952.076 746.029C942.784 767.676 932.262 789.062 922.768 810.645C920.503 815.794 917.682 822.482 914.646 827.105C900.212 839.188 885.334 852.898 871.522 865.705C863 857.215 855.561 849.712 846.425 841.669C844.005 839.052 841.572 836.196 839.204 833.51C842.66 814.437 855.554 772.556 856.483 757.525C856.902 750.734 842.115 697.129 839.492 686.476L777.535 443.295C820.801 432.003 870.763 420.957 912.838 408.523Z"/><path fill="white" d="M955.031 449.047C959.093 460.39 962.959 478.692 965.816 490.711C977 480.662 988.702 468.825 999.782 458.324C1002.29 462.785 1014.21 474.547 1018.46 479.042C1016.13 516.154 1011.7 556.24 1008.22 593.459L986.384 825.589C990.536 831.161 1014.35 862.441 1013.97 865.693C977.928 864.711 937.126 865.718 900.743 865.838C903.072 857.161 911.042 845.846 913.372 837.091C927.456 810.918 941.521 774.299 953.77 747.053C955.915 742.28 954.889 677.014 954.889 667.658L954.885 532.824C954.838 505.407 954.299 476.326 955.031 449.047Z"/><path fill="#038DE5" d="M754.66 449.177L774.882 443.836C785.39 487.028 797.14 529.956 807.749 573.133L803.51 574.878C801.452 569.138 798.238 561.958 795.855 556.201C794.785 560.257 795.841 558.634 792.601 561.259C782.187 540.163 770.416 514.825 758.216 495.159C754.963 506.215 752.322 516.785 748.844 528L746.001 527.999C756.299 496.79 745.445 481.388 746.413 450.095C747.906 447.5 748.955 448.055 752.93 446.928L754.66 449.177Z"/><path fill="#131B22" d="M746.001 527.999C756.299 496.79 745.445 481.388 746.413 450.095C747.906 447.5 748.955 448.055 752.93 446.928L754.66 449.177C768.963 482.716 782.131 521.475 795.855 556.201C794.785 560.257 795.841 558.634 792.601 561.259C782.187 540.163 770.416 514.825 758.216 495.159C754.963 506.215 752.322 516.785 748.844 528L746.001 527.999Z"/><path fill="white" d="M967.389 486.067C963.369 470.951 956.493 446.726 954.481 431.503C953.882 426.967 954.422 386.573 954.945 386.077C956.653 385.919 959.358 388.653 960.605 389.677C962.159 391.952 975.022 402.728 978.004 405.474C988.063 414.391 1002.44 426.422 1012.82 434.852C1013.59 435.905 1014.87 436.788 1015.12 438.129C1014.66 439.376 1000.87 452.783 998.83 455.308C988.261 465.47 977.78 475.724 967.389 486.067Z"/><path fill="#0B8EDB" d="M807.749 573.133C808.014 574.052 808.278 574.97 808.542 575.888C810.287 581.912 811.858 587.986 813.252 594.101C813.695 596.136 814.4 598.542 814.927 600.607C810.907 592.205 807.318 583.396 803.51 574.878L807.749 573.133Z"/><path fill="#038DE5" d="M951.977 377.947C952.135 421.388 952.074 464.831 951.797 508.272C952.16 530.556 953.679 730.183 951.146 734.784C949.817 733.041 949.867 733.184 949.378 731.053C935.067 699.628 920.226 658.195 907.679 625.386C892.434 585.523 872.227 539.817 858.872 500.162C877.863 487.625 896.997 475.306 916.269 463.207L876.159 445.224C896.621 425.954 930.345 395.632 951.977 377.947Z"/><path fill="white" d="M829.708 662.748C835.713 670.659 848.779 740.491 853.955 754.578C855.347 758.368 850.022 777.302 848.519 783.302L837.072 829.671L830.731 819.571C818.33 800.418 804.946 777.66 793.259 757.896L829.708 662.748Z"/><path fill="#038DE5" d="M1025.77 906.242C1070.21 904.366 1120.81 905.857 1165.81 905.602C1177.71 929.168 1201.1 968.657 1215.11 991.321C1212.85 993.973 1209.42 997.154 1209.24 1000.34C1210.01 1001.13 1210.72 1001.99 1211.59 1002.6C1212.17 1010.88 1212.52 1069.06 1214.73 1071.87C1216.38 1071.22 1217.16 1070.49 1218.01 1072.35L1218.99 1740.98C1212.29 1742.72 1199.97 1744.38 1196.78 1749.68C1196.45 1754.76 1199.01 1756.15 1202.82 1758.65C1199.26 1758.55 1199.51 1758.53 1196.36 1756.82C1195.2 1754.57 1195.64 1752.9 1195.84 1750.35C1192 1744.51 1171.97 1751.61 1165.75 1753.58C1147.39 1748.33 1122.49 1742.68 1103.68 1738.89C1103.11 1747.45 1102.64 1755.46 1102.44 1764.04C1100.76 1767.05 1099.8 1769.58 1096.95 1771.4L1095.19 1771.67C1096.5 1769.58 1098.61 1767.04 1100.15 1765.04C1100.59 1756.11 1100.95 1747.18 1101.24 1738.24L1089.16 1735.65C1072.49 1527.1 1053.27 1318.77 1031.51 1110.69L1030.49 1108.54C1026.5 1107.17 1023.43 1107.12 1020.01 1109.67L1019.11 1107.81C1016.29 1118.43 1012.29 1178.54 1009.67 1181.86L1008.19 1180.76L1007.11 1181.83L1005.71 1180.15C1004.06 1127.05 1008 1113.78 960.647 1082.62C965.141 1079.2 966.564 1080.69 973.296 1081.09C991.386 1084.57 1004.52 1086.62 1022.95 1088.12L1025.74 1087.35C1026.5 1070.33 1025.88 1046.68 1025.9 1029.22L1025.77 906.242Z"/><path fill="#020C1C" d="M1165.06 1750.07C1162.22 1713.18 1161.49 1671.47 1159.9 1634.21L1150.54 1414.05L1140.79 1183.08C1140.21 1169.27 1134.67 1071.31 1137.34 1065L1138.31 1065.71C1139.54 1072.87 1139.71 1085.17 1140.05 1092.76L1141.98 1138.88L1147.95 1277.26L1167.91 1750.21C1184.08 1746.48 1200.28 1742.92 1216.53 1739.54L1215.98 1271.92L1215.91 1139.76C1215.9 1125.3 1216.7 1084.9 1214.73 1071.87C1216.38 1071.22 1217.16 1070.49 1218.01 1072.35L1218.99 1740.98C1212.29 1742.72 1199.97 1744.38 1196.78 1749.68C1196.45 1754.76 1199.01 1756.15 1202.82 1758.65C1199.26 1758.55 1199.51 1758.53 1196.36 1756.82C1195.2 1754.57 1195.64 1752.9 1195.84 1750.35C1192 1744.51 1171.97 1751.61 1165.75 1753.58C1147.39 1748.33 1122.49 1742.68 1103.68 1738.89C1103.11 1747.45 1102.64 1755.46 1102.44 1764.04C1100.76 1767.05 1099.8 1769.58 1096.95 1771.4L1095.19 1771.67C1096.5 1769.58 1098.61 1767.04 1100.15 1765.04C1100.59 1756.11 1100.95 1747.18 1101.24 1738.24L1089.16 1735.65C1072.49 1527.1 1053.27 1318.77 1031.51 1110.69L1032.71 1108.49C1035.92 1114.09 1041.63 1195.95 1045.8 1210.6C1046.49 1229.48 1049.11 1252.42 1050.84 1271.61L1060.12 1374.74C1070.77 1493.21 1082.53 1614.94 1091.45 1733.45C1114.64 1739.45 1141.45 1744.82 1165.06 1750.07Z"/><path fill="#131B22" d="M1092.11 1077.1C1094.3 1077.46 1094.64 1078.1 1096.35 1079.57C1045.8 1108.21 1044.82 1127.42 1045.78 1183.16C1045.93 1191.92 1045.78 1201.74 1045.8 1210.6C1041.63 1195.95 1035.92 1114.09 1032.71 1108.49L1031.51 1110.69L1030.49 1108.54C1026.5 1107.17 1023.43 1107.12 1020.01 1109.67L1019.11 1107.81C1016.29 1118.43 1012.29 1178.54 1009.67 1181.86L1008.19 1180.76L1007.11 1181.83L1005.71 1180.15C1004.06 1127.05 1008 1113.78 960.647 1082.62C965.141 1079.2 966.564 1080.69 973.296 1081.09C991.386 1084.57 1004.52 1086.62 1022.95 1088.12L1025.74 1087.35C1043.19 1089.3 1075.25 1081.71 1092.11 1077.1Z"/><path fill="#092943" d="M1092.11 1077.1C1095.54 1075.99 1113.08 1069.67 1114.71 1070.33L1114.8 1070.5C1114.56 1071.04 1097.91 1079.1 1096.35 1079.57C1094.64 1078.1 1094.3 1077.46 1092.11 1077.1Z"/><path fill="#038DE5" d="M889.302 905.977L978.511 906.025C989.999 906.012 1012.23 905.367 1022.95 906.426L1025.77 906.242L1025.9 1029.22C1025.88 1046.68 1026.5 1070.33 1025.74 1087.35L1022.95 1088.12C1004.52 1086.62 991.386 1084.57 973.296 1081.09C966.564 1080.69 965.141 1079.2 960.647 1082.62C1008 1113.78 1004.06 1127.05 1005.71 1180.15L1007.11 1181.83L1008.19 1180.76L1009.67 1181.86C1012.29 1178.54 1016.29 1118.43 1019.11 1107.81L1020.01 1109.67C1020.1 1122.93 1014.57 1162.46 1012.86 1177.58C1008.44 1216.51 1004.57 1255.5 1001.27 1294.54L962.489 1736.3C958.99 1736.92 955.135 1737.17 952.509 1739.35L951.842 1742.58L950.523 1747.13C950.395 1744.13 950.244 1741.13 950.071 1738.12C930.308 1743.03 907.824 1748.28 887.595 1751.72C877.775 1753.39 869.122 1747.65 863.2 1748.79C862.163 1751.1 862.657 1749.91 861.729 1752.37L861.634 1750.57C858.189 1746.03 836.091 1742.14 829.21 1740.44C828.69 1668.92 829.473 1596.45 829.813 1524.91L832.338 1113.71C834.328 1111.51 833.318 1078.53 833.475 1072.45L834.455 1074.23C835.447 1073.93 836.83 1073.28 837.825 1072.86C840.121 1067.79 840.262 1025.45 840.306 1017.01C840.33 1014.95 840.315 1009.49 840.926 1007.73C844.361 997.809 845.581 999.6 839.093 992.29C856.277 966.094 871.724 931.37 889.302 905.977Z"/><path fill="#020C1C" d="M880.33 1749.07C883.76 1628.42 890.483 1505.75 895.473 1385.02C898.066 1318.75 901.012 1252.5 904.308 1186.26C904.941 1172.08 908.213 1071.89 911.403 1065.33C913.399 1075.47 910.545 1116.5 909.945 1129.44L903.8 1261.4L883.048 1750.05C908.892 1744.87 934.706 1739.54 960.488 1734.05C963.155 1690.84 968.057 1644.64 971.795 1601.23L992.27 1365.16L1001 1270.71C1004.1 1236.76 1006.71 1214.13 1005.71 1180.15L1007.11 1181.83L1008.19 1180.76L1009.67 1181.86C1012.29 1178.54 1016.29 1118.43 1019.11 1107.81L1020.01 1109.67C1020.1 1122.93 1014.57 1162.46 1012.86 1177.58C1008.44 1216.51 1004.57 1255.5 1001.27 1294.54L962.489 1736.3C958.99 1736.92 955.135 1737.17 952.509 1739.35L951.842 1742.58L950.523 1747.13C950.395 1744.13 950.244 1741.13 950.071 1738.12C930.308 1743.03 907.824 1748.28 887.595 1751.72C877.775 1753.39 869.122 1747.65 863.2 1748.79C862.163 1751.1 862.657 1749.91 861.729 1752.37L861.634 1750.57C858.189 1746.03 836.091 1742.14 829.21 1740.44C828.69 1668.92 829.473 1596.45 829.813 1524.91L832.338 1113.71C834.328 1111.51 833.318 1078.53 833.475 1072.45L834.455 1074.23C835.942 1084.87 834.808 1125.94 834.694 1138.79L833.762 1270.37L831.848 1738.44L880.33 1749.07Z"/><path fill="#000D37" d="M1022.95 906.426L1025.77 906.242L1025.9 1029.22C1025.88 1046.68 1026.5 1070.33 1025.74 1087.35L1022.95 1088.12C1023.62 1069.81 1023.04 1046.84 1023.04 1028.19L1022.95 906.426Z"/><path fill="#092943" d="M940.391 1070.72C952.236 1075.26 961.606 1077.51 973.296 1081.09C966.564 1080.69 965.141 1079.2 960.647 1082.62C956.479 1081.43 947.202 1075.21 941.878 1073.4C941.394 1072.5 940.898 1071.61 940.391 1070.72Z"/><path fill="#0A71B4" d="M941.878 1073.4C940.623 1072.91 935.9 1071.45 935.737 1069.63C936.861 1068.6 939.242 1070.07 940.391 1070.72C940.898 1071.61 941.394 1072.5 941.878 1073.4Z"/><path fill="#020C1C" d="M861.634 1750.57L861.729 1752.37C862.657 1749.91 862.163 1751.1 863.2 1748.79C869.122 1747.65 877.775 1753.39 887.595 1751.72C907.824 1748.28 930.308 1743.03 950.071 1738.12C950.244 1741.13 950.395 1744.13 950.523 1747.13L951.842 1742.58C951.986 1750.21 952.08 1757.84 952.124 1765.47C954.263 1767.87 955.933 1769.31 957.333 1772.14C966.559 1785.01 964.303 1806.06 965.745 1822.53C972.037 1823.98 978.343 1825.38 984.663 1826.71C986.975 1843.16 990.599 1862.2 994.161 1878.5C972.022 1883.25 938.216 1888.39 918.062 1893.83C909.134 1891.04 900.399 1888.24 891.332 1885.9L894.411 1903.41C870.498 1910.7 847.583 1918.85 822.224 1919.39C801.004 1919.84 778.466 1924.33 757.175 1922.03C734.661 1918.62 711.585 1911.23 689.318 1906.58C692.653 1891.87 695.814 1873.49 699.555 1859.34C702.696 1858.35 707.595 1856.63 710.635 1855.89C711.355 1855.17 712.295 1854.5 713.108 1853.86C713.068 1851.65 713.206 1849.97 713.585 1847.81C716.484 1831.28 726.112 1816.69 740.172 1807.53C759.844 1794.47 783.033 1794.06 805.398 1798.67C816.013 1784.81 826.649 1774.08 841.225 1764.43C846.836 1760.72 857.358 1754.9 861.634 1750.57Z"/><path fill="#131B22" d="M861.634 1750.57L861.729 1752.37C862.657 1749.91 862.163 1751.1 863.2 1748.79C869.122 1747.65 877.775 1753.39 887.595 1751.72C907.824 1748.28 930.308 1743.03 950.071 1738.12C950.244 1741.13 950.395 1744.13 950.523 1747.13L951.842 1742.58C951.986 1750.21 952.08 1757.84 952.124 1765.47C954.263 1767.87 955.933 1769.31 957.333 1772.14C957.082 1776.47 960.27 1781.84 962.242 1786.06C921.396 1789.8 919.09 1808.66 918.801 1844.18C900.394 1851.18 880.369 1856.5 861.351 1862C859.609 1824.78 837.685 1810.27 805.398 1798.67C816.013 1784.81 826.649 1774.08 841.225 1764.43C846.836 1760.72 857.358 1754.9 861.634 1750.57Z"/><path fill="#038DE5" d="M718.727 1838.88C732.486 1806.45 761.425 1794.55 795.499 1799.88C819.529 1803.63 845.116 1816.86 854.976 1840.26C857.849 1847.18 858.552 1855.55 859.273 1863.02C830.036 1875 822.369 1880.02 790.008 1876.33C781.558 1875.36 770.397 1875.52 761.255 1874.06C742.739 1868.24 727.197 1856.77 718.727 1838.88Z"/><path fill="#131B22" d="M713.108 1853.86C714.87 1853.64 715.228 1852.15 715.342 1850.49C715.591 1846.41 716.747 1842.45 718.727 1838.88C727.197 1856.77 742.739 1868.24 761.255 1874.06C744.334 1874.38 731.36 1871.73 714.998 1869.44C714.979 1868.01 714.93 1856.57 714.82 1856.36C713.904 1856.13 713.864 1857.09 713.342 1857.52C712.34 1857.35 711.429 1856.47 710.635 1855.89C711.355 1855.17 712.295 1854.5 713.108 1853.86Z"/><path fill="#038DE5" d="M712.53 1871.52C727.963 1874.8 813.108 1883.23 821.96 1879.68C861.687 1863.74 922.978 1846.44 964.629 1834.27C966.929 1831.35 966.173 1831.77 966.459 1827.24L967.94 1826.13C973.055 1826.7 976.989 1827.6 981.988 1828.67C984.42 1843.41 987.751 1862.15 991.528 1876.44C968.288 1881.59 943.322 1885.93 919.867 1890.18L920.199 1864.77L908.48 1868.29C902.018 1868.87 894.827 1871.51 887.78 1872.34C885.802 1877.56 890.438 1895.17 891.817 1901.64C872.366 1907.5 850.313 1914.96 830.036 1916.12C808.454 1916.23 780.366 1922.44 759.228 1919.64C739.103 1916.98 713.111 1909.49 693.152 1904.7C695.719 1890.53 698.503 1876.39 701.502 1862.31C704.768 1860.67 708.989 1859.1 712.429 1857.71L712.53 1871.52Z"/><path fill="#038DE5" d="M952.886 1789.28C953.901 1789.18 960.231 1788.44 960.437 1789.72C962.391 1801.79 963.052 1819.86 963.714 1831.65C954.628 1834.43 942.212 1837.23 933.745 1840.37L921.769 1843.61C921.893 1830.73 920.599 1814.94 927.807 1803.99C932.721 1796.68 940.359 1791.64 949.013 1790L952.886 1789.28Z"/><path fill="#131B22" d="M908.48 1868.29C910.241 1868.54 917.001 1868.15 916.978 1868.11C918.81 1871.09 917.732 1877.55 917.742 1881C917.593 1884.65 917.421 1888.09 917.184 1891.49C912.254 1889.66 903.13 1886.46 898.047 1885.61C888.018 1883.94 891.068 1883.63 887.78 1872.34C894.827 1871.51 902.018 1868.87 908.48 1868.29Z"/><path fill="#020C1C" d="M1103.68 1738.89C1122.49 1742.68 1147.39 1748.33 1165.75 1753.58C1171.97 1751.61 1192 1744.51 1195.84 1750.35C1195.64 1752.9 1195.2 1754.57 1196.36 1756.82C1199.51 1758.53 1199.26 1758.55 1202.82 1758.65C1211.8 1762.82 1238.76 1786.01 1242.08 1794.51C1248.06 1799.82 1254.96 1797.1 1262.96 1796.68C1304.42 1794.53 1332.5 1813.19 1338.61 1855.27L1353.59 1859.8C1356.08 1874.99 1359.73 1891.24 1362.86 1906.41C1340.27 1912.51 1313.66 1918.78 1290.48 1922.48C1269.86 1923.86 1247.94 1919.82 1227.49 1919.3C1202.59 1918.66 1179.42 1910.58 1156.06 1903.42C1157.28 1897.77 1158.66 1892.05 1159.96 1886.41C1151.4 1888.89 1142.56 1891.84 1134.03 1894.54C1122.46 1890.4 1072.47 1881.71 1057.26 1878.46C1060.03 1861.79 1064.07 1843.55 1067.41 1826.86C1073.79 1825.78 1080.24 1824.13 1086.55 1822.63C1087.13 1808.15 1086.18 1785.84 1093.59 1773.97C1093.9 1773.15 1094.6 1772.43 1095.19 1771.67L1096.95 1771.4C1099.8 1769.58 1100.76 1767.05 1102.44 1764.04C1102.64 1755.46 1103.11 1747.45 1103.68 1738.89Z"/><path fill="#131B22" d="M1103.68 1738.89C1122.49 1742.68 1147.39 1748.33 1165.75 1753.58C1171.97 1751.61 1192 1744.51 1195.84 1750.35C1195.64 1752.9 1195.2 1754.57 1196.36 1756.82C1199.51 1758.53 1199.26 1758.55 1202.82 1758.65C1211.8 1762.82 1238.76 1786.01 1242.08 1794.51C1242.46 1796.53 1242.69 1797.2 1243.75 1798.96C1242.32 1800.01 1242.33 1800.06 1240.66 1800.53C1231.33 1803.14 1220.1 1809.37 1212.73 1815.62C1197.51 1828.52 1191.44 1843.86 1189.79 1863.12C1170.92 1856.57 1151.83 1850.69 1132.55 1845.47C1133.92 1808.88 1130.58 1792.77 1092.84 1786.92C1090.29 1786.53 1093.72 1777.1 1093.59 1773.97C1093.9 1773.15 1094.6 1772.43 1095.19 1771.67L1096.95 1771.4C1099.8 1769.58 1100.76 1767.05 1102.44 1764.04C1102.64 1755.46 1103.11 1747.45 1103.68 1738.89Z"/><path fill="#038DE5" d="M1069.63 1829.35C1073.86 1828.27 1081.31 1825.89 1085.3 1826.35C1086.26 1828.82 1086 1830.31 1085.93 1832.94C1088.28 1836.23 1178.09 1860.57 1189.28 1865.27C1198.67 1869.21 1218.92 1876.35 1229.15 1879.32C1263.05 1881.81 1304.74 1876.4 1337.76 1871.08C1338.13 1866.87 1338.44 1862.33 1338.92 1858.16L1351.24 1861.88C1353.69 1876.16 1356.63 1890.36 1360.04 1904.44C1344.46 1908.14 1307.48 1917.89 1292.43 1919.58C1273.05 1921.76 1226 1916.18 1205.44 1914.35C1199.86 1913.86 1165.29 1903.68 1158.66 1901.58C1161.19 1892.57 1163.74 1882.16 1164.13 1872.78C1157.35 1883.95 1165.68 1883.55 1147.48 1887.82C1144.27 1888.57 1136.24 1891.63 1132.66 1892.76C1133.05 1885.63 1131.49 1870.26 1136.6 1866.37L1133.01 1866.04C1129.57 1869.9 1131.26 1884.96 1131.36 1890.92C1107.5 1885.46 1084.03 1881.3 1060.03 1876.66C1063.22 1860.98 1066.64 1845.04 1069.63 1829.35Z"/><path fill="#131B22" d="M1136.6 1866.37C1143.79 1867.87 1157.92 1870.22 1164.13 1872.78C1157.35 1883.95 1165.68 1883.55 1147.48 1887.82C1144.27 1888.57 1136.24 1891.63 1132.66 1892.76C1133.05 1885.63 1131.49 1870.26 1136.6 1866.37Z"/><path fill="#038DE5" d="M1191.81 1863.26C1193.23 1851.92 1194.82 1845.24 1200.09 1835.04C1224.69 1787.44 1317.55 1784.17 1332.9 1841.1C1337.19 1852.35 1335.91 1857.67 1335.98 1869.69C1331.46 1869.94 1325.41 1870.2 1321.01 1871.05C1311.62 1872.86 1312.66 1872.73 1305.7 1868.18C1304.53 1868.76 1303.34 1869.32 1302.15 1869.85C1286.08 1877.11 1248.28 1878.15 1230.22 1876.66C1225.67 1876.28 1198.23 1865.67 1191.81 1863.26Z"/><path fill="#131B22" d="M1332.9 1841.1C1337.19 1852.35 1335.91 1857.67 1335.98 1869.69C1331.46 1869.94 1325.41 1870.2 1321.01 1871.05C1311.62 1872.86 1312.66 1872.73 1305.7 1868.18C1306.33 1867.61 1306.63 1867.34 1307.42 1866.89C1319.09 1860.18 1325.18 1851.61 1332.9 1841.1Z"/><path fill="#038DE5" d="M1091.01 1789.35C1113.57 1792.49 1129.47 1798.02 1130.18 1826C1130.32 1831.33 1130.89 1839.13 1129.72 1844.13C1116.43 1840.18 1101.85 1835.52 1088.45 1832.31C1089.06 1817.84 1090.43 1803.7 1091.01 1789.35Z"/></svg>