<?xml version="1.0" encoding="utf-8" ?><svg xmlns="http://www.w3.org/2000/svg" xmlns:xlink="http://www.w3.org/1999/xlink" width="2048" height="2048" viewBox="0 0 2048 2048"><path fill="white" d="M0 0L2048 0L2048 2048L0 2048L0 0Z"/><path fill="#041410" d="M913.576 455.268L919.362 443.734L921.397 444.763C956.158 472.254 994.456 503.512 1038.85 512.562C1039.76 512.748 1039.87 514.403 1039.98 515.033L1042.78 514.499C1043.58 514.521 1044.19 514.643 1044.97 514.757L1047.56 513.729C1048.47 512.63 1049 512.358 1050.48 512.124C1073.43 508.503 1088.02 493.875 1101.28 476.41L1101.34 476.054C1103.3 474.236 1103.16 474.366 1104.16 471.871C1115.41 477.151 1119.68 489.928 1127.5 494.755C1164.35 517.504 1204.16 538.935 1247.09 547.229C1252.61 548.296 1259.49 550.05 1263.88 553.198C1266.67 555.02 1269.26 556.8 1270.71 559.991C1278.25 569.532 1280.71 590.916 1284.74 603.223C1313.58 691.147 1345.19 778.657 1374.07 866.491C1377.72 877.581 1376.59 906.081 1369.51 914.498C1352.48 934.721 1342.59 957.599 1330.29 981.038C1328.49 984.463 1325.76 989.994 1323.62 993.193C1321.98 996.562 1315.48 1010.25 1313.7 1012.3C1302.52 1035.16 1286.62 1066.14 1274.19 1088.27L1279.46 1102.09C1281.7 1106.6 1288.36 1119.81 1287.2 1124.21L1286.11 1125.16C1280.26 1135.38 1247.72 1173.7 1247.24 1179.93L1246.46 1185.19L1244.85 1181.81C1228.88 1204.32 1212.06 1227.81 1196.68 1250.62C1183.99 1225.11 1169.75 1190.71 1158.12 1164.24L1116.33 1071.11C1115.85 1070.28 1116.2 1070.77 1114.9 1069.81L1113.73 1068.97L1113.43 1065.84C1108.48 1058.22 1097.15 1030.71 1091.85 1026.86C1089.27 1028.24 1090.25 1027.23 1089.3 1030.37L1085.88 1032.1C1080.2 1038.5 1062.15 1057.43 1059.51 1063.66C1054.91 1074.5 1049.4 1090.09 1044.78 1101.93C1024.63 1153.62 1002.72 1206.88 983.919 1258.98L862.598 1210.85C858.258 1209.14 838.046 1200.29 834.941 1200.98L833.281 1203.41L831.5 1202.78L833.761 1192C823.667 1188.09 813.52 1184.31 803.323 1180.68C808.839 1158.33 814.513 1136.02 820.344 1113.76C812.081 1120.77 803.985 1127.98 796.065 1135.37C791.725 1131.24 788.012 1126.85 784.068 1122.35C732.195 1065.77 682.448 1006.64 631.091 949.568C618.332 935.388 608.638 937.326 599.281 914.636C595.177 904.637 593.871 893.711 595.502 883.026C597.666 868.318 609.977 840.412 615.913 825.766C624.229 804.973 632.659 784.225 641.201 763.524C661.025 710.585 684.047 658.176 703.515 605.023C707.876 593.119 703.811 581.227 708.699 568.151C722.384 531.536 757.411 543.542 786.771 533.425C822.613 522.38 854.113 504.789 887.226 487.776C889.264 480.745 891.644 475.695 895.687 469.688C900.88 462.476 905.948 459.094 913.576 455.268Z"/><path fill="#203B41" d="M810.038 655.232C817.876 679.997 821.331 697.02 820.716 723.731L823.029 722.663C825.792 723.797 826.012 726.516 827.74 730.157C830.239 748.428 828.777 765.207 828.689 783.42C828.647 791.983 837.15 814.092 842.586 820.024L842.921 821.958C879.134 807.239 914.49 789.488 950.446 774.042C957.997 770.798 965.908 767.287 973.273 763.648C999.838 792.669 1025.47 826.973 1051.47 856.921C1060.73 867.599 1071.42 881.973 1081.04 891.778C1082.46 926.2 1086.43 966.406 1087.01 999.684L1089.82 998.733C1110.58 1046.14 1131.67 1093.4 1153.1 1140.5C1165.3 1167.8 1180.84 1205.43 1194.13 1230.93C1204.05 1219.27 1279.75 1128.28 1286.11 1125.16C1280.26 1135.38 1247.72 1173.7 1247.24 1179.93L1246.46 1185.19L1244.85 1181.81C1228.88 1204.32 1212.06 1227.81 1196.68 1250.62C1183.99 1225.11 1169.75 1190.71 1158.12 1164.24L1116.33 1071.11C1115.85 1070.28 1116.2 1070.77 1114.9 1069.81L1113.73 1068.97L1113.43 1065.84C1108.48 1058.22 1097.15 1030.71 1091.85 1026.86C1089.27 1028.24 1090.25 1027.23 1089.3 1030.37L1085.88 1032.1C1080.2 1038.5 1062.15 1057.43 1059.51 1063.66C1054.91 1074.5 1049.4 1090.09 1044.78 1101.93C1024.63 1153.62 1002.72 1206.88 983.919 1258.98L862.598 1210.85C858.258 1209.14 838.046 1200.29 834.941 1200.98L833.281 1203.41L831.5 1202.78L833.761 1192C823.667 1188.09 813.52 1184.31 803.323 1180.68C808.839 1158.33 814.513 1136.02 820.344 1113.76C812.081 1120.77 803.985 1127.98 796.065 1135.37C791.725 1131.24 788.012 1126.85 784.068 1122.35C732.195 1065.77 682.448 1006.64 631.091 949.568C618.332 935.388 608.638 937.326 599.281 914.636C595.177 904.637 593.871 893.711 595.502 883.026C597.666 868.318 609.977 840.412 615.913 825.766C624.229 804.973 632.659 784.225 641.201 763.524L643.508 764.304C646.184 761.256 668.402 747.58 672.97 744.69C718.948 715.606 763.823 683.875 810.038 655.232Z"/><path fill="#1DBF93" d="M810.038 655.232C817.876 679.997 821.331 697.02 820.716 723.731C817.84 753.829 812.604 765.69 798.258 792.035L800.215 793.722C804.801 799.623 815.265 822.495 819.351 830.309C835.388 860.981 850.162 894.953 866.788 925.077C864.014 933.722 848.786 984.27 846.004 988.118C845.137 987.726 843.662 987.101 842.857 986.673L841.843 987.07C842.473 988.21 843.086 989.358 843.682 990.515C852.462 1000.22 859.975 1010.49 868.328 1019.83L856.137 1035.41C850.353 1042.11 841.769 1053.72 836.148 1061.14C829.9 1069.38 819.062 1082.17 813.673 1090.31C808.99 1096.32 792.688 1118.85 787.86 1121.97L784.068 1122.35C732.195 1065.77 682.448 1006.64 631.091 949.568C618.332 935.388 608.638 937.326 599.281 914.636C595.177 904.637 593.871 893.711 595.502 883.026C597.666 868.318 609.977 840.412 615.913 825.766C624.229 804.973 632.659 784.225 641.201 763.524L643.508 764.304C646.184 761.256 668.402 747.58 672.97 744.69C718.948 715.606 763.823 683.875 810.038 655.232Z"/><path fill="white" d="M800.215 793.722C804.801 799.623 815.265 822.495 819.351 830.309C835.388 860.981 850.162 894.953 866.788 925.077C864.014 933.722 848.786 984.27 846.004 988.118C845.137 987.726 843.662 987.101 842.857 986.673C840.72 983.08 826.784 968.106 822.868 963.765L775.661 911.624C767.264 902.317 759.975 892.103 752.209 883.686C765.992 855.6 784.955 821.096 800.215 793.722Z"/><path fill="#03271B" d="M784.068 1122.35C732.195 1065.77 682.448 1006.64 631.091 949.568C618.332 935.388 608.638 937.326 599.281 914.636C595.177 904.637 593.871 893.711 595.502 883.026C597.666 868.318 609.977 840.412 615.913 825.766C624.229 804.973 632.659 784.225 641.201 763.524L643.508 764.304C634.278 787.828 624.855 811.276 615.241 834.646C604.642 860.76 590.071 886.329 601.975 914.62C604.04 919.434 606.825 923.907 610.234 927.885C616.96 935.687 625.922 940.235 632.898 948.027C656.012 973.847 679.051 999.929 701.945 1025.94C703.281 1027.02 703.474 1027.3 704.356 1028.84L757.218 1088.19C765.093 1097.1 779.388 1114.15 787.86 1121.97L784.068 1122.35Z"/><path fill="#104B3D" d="M701.945 1025.94C703.281 1027.02 703.474 1027.3 704.356 1028.84C702.796 1028.03 702.373 1027.63 701.945 1025.94Z"/><path fill="#041410" d="M798.258 792.035L800.215 793.722C784.955 821.096 765.992 855.6 752.209 883.686C759.975 892.103 767.264 902.317 775.661 911.624L822.868 963.765C826.784 968.106 840.72 983.08 842.857 986.673L841.843 987.07L841.017 987.603C815.061 958.538 788.835 929.715 762.342 901.138C752.368 897.953 740.078 895.613 729.545 896.124C721.787 896.501 716.583 897.955 708.561 897.249L708.969 896.474C721.922 893.372 732.158 892.468 745.52 894.353C749.347 894.893 755.195 896.608 758.574 896.61L758.197 894.613C757.775 894.005 757.354 893.397 756.932 892.789C744.631 877.106 716.157 867.311 696.756 865.912C691.522 865.534 675.29 865.077 671.313 863.601C698.949 860.009 726.943 866.675 749.994 882.336C764.583 854.726 782.604 818.207 798.258 792.035Z"/><path fill="#040605" d="M1087.01 999.684L1089.82 998.733C1110.58 1046.14 1131.67 1093.4 1153.1 1140.5C1165.3 1167.8 1180.84 1205.43 1194.13 1230.93C1204.05 1219.27 1279.75 1128.28 1286.11 1125.16C1280.26 1135.38 1247.72 1173.7 1247.24 1179.93L1246.46 1185.19L1244.85 1181.81C1228.88 1204.32 1212.06 1227.81 1196.68 1250.62C1183.99 1225.11 1169.75 1190.71 1158.12 1164.24L1116.33 1071.11C1115.85 1070.28 1116.2 1070.77 1114.9 1069.81L1113.73 1068.97L1113.43 1065.84C1108.48 1058.22 1097.15 1030.71 1091.85 1026.86C1089.27 1028.24 1090.25 1027.23 1089.3 1030.37L1085.88 1032.1C1080.2 1038.5 1062.15 1057.43 1059.51 1063.66C1054.91 1074.5 1049.4 1090.09 1044.78 1101.93C1024.63 1153.62 1002.72 1206.88 983.919 1258.98L862.598 1210.85C858.258 1209.14 838.046 1200.29 834.941 1200.98L833.281 1203.41L831.5 1202.78L833.761 1192C823.667 1188.09 813.52 1184.31 803.323 1180.68C808.839 1158.33 814.513 1136.02 820.344 1113.76C812.081 1120.77 803.985 1127.98 796.065 1135.37C791.725 1131.24 788.012 1126.85 784.068 1122.35L787.86 1121.97C792.688 1118.85 808.99 1096.32 813.673 1090.31C814.117 1091.4 814.268 1091.6 814.895 1092.64C820.748 1097.91 827.952 1105.83 833.677 1111.62C834.386 1112.41 835.094 1113.19 835.803 1113.98L828.553 1128.26C837.537 1140.52 850.604 1159 860.103 1170.08C865.042 1175.83 890.906 1191.38 898.966 1196.54L970.656 1242.39C989.914 1196.62 1017.89 1140.98 1039.82 1095.66L1065.81 1042.67C1072.24 1029.24 1079.69 1012.4 1087.01 999.684Z"/><path fill="#040605" d="M820.716 723.731L823.029 722.663C825.792 723.797 826.012 726.516 827.74 730.157C830.239 748.428 828.777 765.207 828.689 783.42C828.647 791.983 837.15 814.092 842.586 820.024L842.921 821.958C853.067 849.279 869.078 881.798 880.509 909.616L919.571 921.586C880.77 941.28 876.881 949.961 854.687 985.802C858.736 992.666 876.413 1014.67 882.244 1021.3C880.412 1024.8 871.362 1043.45 869.229 1044.9L868.843 1044.12C866.92 1042.48 860.775 1036.39 858.538 1036.59L856.137 1035.41L868.328 1019.83C859.975 1010.49 852.462 1000.22 843.682 990.515C843.086 989.358 842.473 988.21 841.843 987.07L842.857 986.673C843.662 987.101 845.137 987.726 846.004 988.118C848.786 984.27 864.014 933.722 866.788 925.077C850.162 894.953 835.388 860.981 819.351 830.309C815.265 822.495 804.801 799.623 800.215 793.722L798.258 792.035C812.604 765.69 817.84 753.829 820.716 723.731Z"/><path fill="white" d="M813.673 1090.31C819.062 1082.17 829.9 1069.38 836.148 1061.14C841.769 1053.72 850.353 1042.11 856.137 1035.41L858.538 1036.59C860.775 1036.39 866.92 1042.48 868.843 1044.12C864.864 1048.87 837.176 1104.73 836.72 1109.76L833.677 1111.62C827.952 1105.83 820.748 1097.91 814.895 1092.64C814.268 1091.6 814.117 1091.4 813.673 1090.31Z"/><path fill="#041410" d="M813.673 1090.31C819.062 1082.17 829.9 1069.38 836.148 1061.14C841.769 1053.72 850.353 1042.11 856.137 1035.41L858.538 1036.59C843.712 1054.52 829.668 1074.6 814.895 1092.64C814.268 1091.6 814.117 1091.4 813.673 1090.31Z"/><path fill="#040605" d="M836.72 1109.76C837.157 1111.76 836.921 1112.27 835.803 1113.98C835.094 1113.19 834.386 1112.41 833.677 1111.62L836.72 1109.76Z"/><path fill="#040605" d="M981.671 935.078C985.749 935.558 984.153 943.409 984.21 947.108C952.043 955.198 919.166 965.717 887.232 974.947C884.125 974.4 884.247 969.853 883.854 966.806L883.587 965.073L981.671 935.078Z"/><path fill="#203B41" d="M980.098 938.105C985.253 944.363 978.192 945.591 974.108 946.87C945.854 955.724 917.064 962.956 888.844 971.87C885.872 971.103 886.95 967.628 887.093 967.577C907.262 960.455 962.989 943.39 980.098 938.105Z"/><path fill="#203B41" d="M1181.01 559.706C1170.02 545.595 1158 531.814 1146.81 517.858C1143.19 513.343 1137.46 508.4 1135.43 504.116C1138.29 502.545 1155.26 513.668 1158.79 515.613C1187.29 531.329 1216.31 543.529 1248.31 549.983C1252.32 550.792 1260.37 553.653 1263.88 553.198C1266.67 555.02 1269.26 556.8 1270.71 559.991C1278.25 569.532 1280.71 590.916 1284.74 603.223C1313.58 691.147 1345.19 778.657 1374.07 866.491C1377.72 877.581 1376.59 906.081 1369.51 914.498C1352.48 934.721 1342.59 957.599 1330.29 981.038C1328.49 984.463 1325.76 989.994 1323.62 993.193C1321.98 996.562 1315.48 1010.25 1313.7 1012.3C1302.52 1035.16 1286.62 1066.14 1274.19 1088.27L1279.46 1102.09C1281.7 1106.6 1288.36 1119.81 1287.2 1124.21L1286.11 1125.16C1279.75 1128.28 1204.05 1219.27 1194.13 1230.93C1180.84 1205.43 1165.3 1167.8 1153.1 1140.5C1131.67 1093.4 1110.58 1046.14 1089.82 998.733C1087.2 968.271 1084.92 924.43 1084.55 893.167C1084.47 886.795 1099.24 849.574 1102.49 840.379L1146.74 714.106L1242.17 713.931L1242.22 676.961C1214.62 676.667 1187.01 676.646 1159.41 676.898C1166.86 656.135 1174.14 635.311 1181.25 614.428C1168.79 606.324 1151.82 595.491 1138.93 588.436C1153.05 578.993 1167.07 569.416 1181.01 559.706Z"/><path fill="#040605" d="M1198.8 886.882C1200.16 877.986 1208.39 855.244 1211.52 845.594C1225.38 802.903 1243.66 762.43 1253.87 718.395C1259.03 696.114 1266.09 672.521 1268.43 649.604C1269.81 636.086 1267.19 606.122 1270.05 593.903C1278.65 621.407 1254.49 837.724 1250.93 877.051C1251.98 877.926 1252.37 878.309 1253.31 879.282L1252.11 882.804L1252.88 883.764C1261.57 880.808 1267.25 876.054 1274.57 872.745C1291.42 865.121 1313.64 863.814 1331.71 864.568C1293.36 874.237 1264.03 890.435 1257.35 936.461C1256.13 944.832 1259.94 964.158 1261.22 973.242L1269.23 1030.84C1270.26 1038.31 1274.13 1072.05 1276.76 1076.96C1284.29 1070.76 1306.56 1014.04 1313.7 1012.3C1302.52 1035.16 1286.62 1066.14 1274.19 1088.27L1279.46 1102.09L1277.71 1102.34C1272.91 1093.26 1264.6 1067.97 1260.48 1056.75L1228.32 969.689C1207 962.221 1186.13 953.606 1164.56 946.18C1164.05 942.701 1164.09 937.642 1163.98 933.995C1182.47 941.857 1205.16 949.959 1224.27 957.343L1220.14 948.338C1221.11 946.916 1221.02 946.965 1221.73 945.26C1215.75 934.637 1206.38 909.357 1201.74 897.503C1200.89 895.341 1200.96 888.942 1200.92 886.375L1198.8 886.882Z"/><path fill="white" d="M1215.12 842.45C1225.4 858.122 1236.18 876.335 1246.5 891.514C1239.62 907.445 1227.09 930.405 1221.73 945.26C1215.75 934.637 1206.38 909.357 1201.74 897.503C1200.89 895.341 1200.96 888.942 1200.92 886.375C1204.53 871.801 1210.01 856.588 1215.12 842.45Z"/><path fill="#203B41" d="M1166.91 937.816C1186.08 944.765 1205.22 953.107 1224.41 960.132C1225.93 960.687 1226.6 964.321 1227.05 965.606L1227.38 966.536C1207.5 959.324 1187.61 951.63 1167.86 944.141C1166.95 943.795 1166.95 938.407 1166.91 937.816Z"/><path fill="#041410" d="M1270.71 559.991C1278.25 569.532 1280.71 590.916 1284.74 603.223C1313.58 691.147 1345.19 778.657 1374.07 866.491C1377.72 877.581 1376.59 906.081 1369.51 914.498C1352.48 934.721 1342.59 957.599 1330.29 981.038C1328.49 984.463 1325.76 989.994 1323.62 993.193L1322.92 992.216C1322.72 988.109 1334.81 967.885 1337.36 962.153C1357.45 916.971 1387.17 909.729 1368.27 854.851C1346.7 792.213 1324.32 727.219 1303.1 664.223C1293.18 634.754 1281.72 604.54 1275.06 574.099C1274.01 569.241 1271.75 565.333 1270.71 559.991Z"/><path fill="#041410" d="M1198.8 886.882L1200.92 886.375C1200.96 888.942 1200.89 895.341 1201.74 897.503C1206.38 909.357 1215.75 934.637 1221.73 945.26C1221.02 946.965 1221.11 946.916 1220.14 948.338C1217.86 944.102 1215.76 937.822 1213.86 932.963C1209.31 921.311 1203.77 909.784 1199.62 897.999C1198.59 895.063 1197.68 889.774 1198.8 886.882Z"/><path fill="#040605" d="M1250.93 877.051C1252.63 876.673 1254.38 875.342 1255.31 876.243C1255.43 877.537 1254.15 878.482 1253.31 879.282C1252.37 878.309 1251.98 877.926 1250.93 877.051Z"/><path fill="#040605" d="M1301.87 838.139C1303.54 839.776 1303.08 840.394 1301.01 841.056C1290.58 844.391 1280.85 849.928 1272.53 857.03C1268.87 860.152 1265.71 864.285 1261.96 867.305C1260.25 868.657 1260.75 868.065 1258.77 869.701C1257.43 868.306 1259.14 867.01 1260.2 865.722C1271.03 852.58 1285.54 842.975 1301.87 838.139Z"/><path fill="#040605" d="M887.226 487.776C889.264 480.745 891.644 475.695 895.687 469.688L897.339 471.344C892.293 478.751 886.034 495.954 882.134 505.129L856.659 564.325C860.749 566.776 864.946 569.407 869.166 571.592L865.11 572.953C875.824 576.832 905.611 594.653 917.119 601.267C901.034 615.593 853.552 631.67 833.042 642.117C826.701 645.347 817.502 648.442 811.35 652.523L811.097 654.687L810.038 655.232C763.823 683.875 718.948 715.606 672.97 744.69C668.402 747.58 646.184 761.256 643.508 764.304L641.201 763.524C661.025 710.585 684.047 658.176 703.515 605.023C707.876 593.119 703.811 581.227 708.699 568.151C722.384 531.536 757.411 543.542 786.771 533.425C822.613 522.38 854.113 504.789 887.226 487.776Z"/><path fill="#203B41" d="M740.234 539.199C759.87 548.922 772.165 562.967 782.355 582.342C806.599 579.291 842.022 577.715 865.11 572.953C875.824 576.832 905.611 594.653 917.119 601.267C901.034 615.593 853.552 631.67 833.042 642.117C826.701 645.347 817.502 648.442 811.35 652.523C808.266 647.582 800.16 622.329 796.606 614.853C787.538 595.076 777.518 576.255 762.126 560.564C755.081 553.381 746.767 546.761 740.234 539.199Z"/><path fill="#1DBF93" d="M883.809 622.506L902.445 614.326L889.244 625.896C883.6 630.714 877.375 636.269 871.518 640.68L971.887 761.256L881.612 801.718C875.768 804.333 845.597 817.49 842.586 820.024C837.15 814.092 828.647 791.983 828.689 783.42C828.777 765.207 830.239 748.428 827.74 730.157C823.076 700.907 822.138 682.726 812.138 654.37C834.485 645.517 861.616 632.597 883.809 622.506Z"/><path fill="#1DBF93" d="M913.981 457.501C926.034 488.969 943.866 535.148 957.77 565.665C945.78 577.153 932.74 588.232 920.188 599.165C905.448 591.73 882.747 577.144 869.166 571.592C864.946 569.407 860.749 566.776 856.659 564.325L882.134 505.129C886.034 495.954 892.293 478.751 897.339 471.344C903.098 464.587 905.965 462.182 913.981 457.501Z"/><path fill="white" d="M921.397 444.763C956.158 472.254 994.456 503.512 1038.85 512.562C1039.76 512.748 1039.87 514.403 1039.98 515.033C1036.14 519.171 1027.05 532.472 1023.59 537.415C1014.61 550.38 1005.5 563.255 996.271 576.039C983.148 566.033 965.709 554.639 951.753 545.575C939.97 515.672 927.444 486.014 916.11 455.933L921.397 444.763Z"/><path fill="white" d="M1047.56 513.729C1048.47 512.63 1049 512.358 1050.48 512.124C1073.43 508.503 1088.02 493.875 1101.28 476.41C1103.84 498.289 1106.14 528.638 1107.11 550.75C1103.64 556.528 1100.11 562.274 1096.53 567.987C1078.93 551.836 1063.89 531.103 1047.56 513.729Z"/><path fill="#1DBF93" d="M1042.78 514.499C1043.58 514.521 1044.19 514.643 1044.97 514.757C1055.27 527.285 1066.76 539.637 1077.53 551.798L1076.8 553.102C1072.88 559.939 1069.53 568.457 1065.79 575.839C1056.46 576.192 1047.11 576.308 1037.77 576.188C1031.03 566.584 1025.79 558.505 1018.3 549.191C1025.2 539.923 1036.69 524.246 1042.78 514.499Z"/><path fill="#1DBF93" d="M875.178 641.059C879.216 637.939 883.449 634.216 887.254 630.791C910.483 609.882 935.777 590.265 958.298 568.655C962.588 577.69 968.18 593.437 971.977 603.112L996.093 664.144C1023.71 734.824 1050.66 805.766 1076.92 876.962L1071.73 877.179L875.178 641.059Z"/><path fill="#1DBF93" d="M1060.76 578.45C1063.41 578.326 1062.54 578.247 1065.04 578.878C1066.69 582.13 1075.84 623.604 1077.42 630.171C1082.61 651.445 1087.66 672.752 1092.58 694.09C1097.94 717.05 1101.33 725.079 1097.77 749.06C1091.32 792.492 1090.09 839.363 1082.62 882.379C1081.53 881.806 1079.6 875.894 1078.96 874.229C1065.03 838.518 1044.05 781.589 1031.35 744.882C1028.98 738.053 1033.71 677.027 1034.62 665.196C1036.57 639.759 1036.81 603.989 1040.15 578.782L1060.76 578.45Z"/><path fill="#1DBF93" d="M1110.11 573.027C1132.73 587.117 1155.28 601.328 1177.75 615.659C1151.22 694.453 1122.32 779.089 1093.54 857.08C1088.9 854.749 1090.62 852.163 1089.83 846.59C1092.38 816.101 1096.68 785.523 1099.66 755.038C1105.54 694.85 1108.13 633.449 1110.11 573.027Z"/><path fill="white" d="M954.015 550.608C959.248 552.617 990.657 574.92 997.29 579.582L1016.67 551.415C1024.01 560.877 1030.35 570.322 1037.09 580.201L1029.85 705.25C1029.44 716.857 1028.8 728.455 1027.93 740.037C1006.37 679.244 977.854 611.607 954.015 550.608Z"/><path fill="#1DBF93" d="M1104.16 474.401C1115.38 483.325 1129.79 502.359 1139.4 514.052C1151.9 529.158 1164.49 544.189 1177.18 559.145L1160.16 570.868C1152.99 576.263 1144.53 581.556 1136.97 586.515C1127.95 580.952 1118.98 575.296 1110.07 569.548C1110.58 539.291 1105.36 505.152 1104.16 474.401Z"/><path fill="white" d="M1078.85 553.725C1085.23 560.339 1090.44 565.75 1097.44 571.784C1100.16 566.419 1104.69 559.294 1107.87 553.972C1108.06 599.872 1104.09 656.819 1101.73 703.248C1101.33 707.903 1100.89 712.555 1100.4 717.202L1067.76 577.551C1071.7 570.28 1075.43 561.367 1078.85 553.725Z"/><path fill="#1DBF93" d="M1158.65 679.17C1185.39 678.923 1212.99 679.055 1239.76 679.276L1239.49 711.157C1235.87 711.231 1232.13 711.149 1228.5 711.131C1201.51 710.856 1174.52 711.042 1147.54 711.689C1151.38 701.443 1155.02 689.659 1158.65 679.17Z"/><path fill="#2BB595" d="M1086.43 876.064C1087.12 868.097 1088.37 854.365 1089.83 846.59C1090.62 852.163 1088.9 854.749 1093.54 857.08C1091.83 862.468 1089.88 867.775 1087.69 872.986L1086.43 876.064Z"/><path fill="#2BB595" d="M1076.92 876.962C1078.3 880.991 1079.95 885.188 1081.42 889.213L1078.4 885.521L1071.73 877.179L1076.92 876.962Z"/><path fill="#203B41" d="M1089.3 1030.37C1090.25 1027.23 1089.27 1028.24 1091.85 1026.86C1097.15 1030.71 1108.48 1058.22 1113.43 1065.84L1113.73 1068.97L1114.9 1069.81C1116.2 1070.77 1115.85 1070.28 1116.33 1071.11C1113.82 1077.68 1113.25 1146.91 1112.32 1160.23C1099.03 1171.53 1085.44 1182.87 1072.31 1194.32L1070.22 1216.72L1067.68 1217.36C1065.62 1220.48 1040.75 1237.78 1035.54 1241.59C1034.56 1246.75 1033.49 1251.88 1032.33 1256.99L1035.4 1257.24C1032.15 1266.66 1027.22 1291.92 1024.87 1302.61L1005.06 1392.21L918.848 1769.63L900.191 1850.73C899.108 1855.47 895.452 1874.84 892.974 1877.47C890.598 1877.22 889.273 1877.01 886.933 1876.52L864.487 1871.34L864.298 1893.61L863.001 1900.58C847.944 1895.29 829.185 1886.8 814.174 1880.49L738.755 1848.72C737.586 1847.96 736.5 1847.25 735.302 1846.53L738.944 1841.12C730.041 1839.67 713.773 1835.14 704.464 1832.83C720.945 1754.38 736.952 1675.84 752.483 1597.21L831.5 1202.78L833.281 1203.41L834.941 1200.98C838.046 1200.29 858.258 1209.14 862.598 1210.85L983.919 1258.98C1002.72 1206.88 1024.63 1153.62 1044.78 1101.93C1049.4 1090.09 1054.91 1074.5 1059.51 1063.66C1062.15 1057.43 1080.2 1038.5 1085.88 1032.1L1089.3 1030.37Z"/><path fill="#1DBF93" d="M1089.3 1030.37C1090.25 1027.23 1089.27 1028.24 1091.85 1026.86C1097.15 1030.71 1108.48 1058.22 1113.43 1065.84L1113.73 1068.97L1114.9 1069.81C1116.2 1070.77 1115.85 1070.28 1116.33 1071.11C1113.82 1077.68 1113.25 1146.91 1112.32 1160.23C1099.03 1171.53 1085.44 1182.87 1072.31 1194.32L1070.22 1216.72L1067.68 1217.36C1065.62 1220.48 1040.75 1237.78 1035.54 1241.59C1034.56 1246.75 1033.49 1251.88 1032.33 1256.99L996.159 1420.19C964.902 1396.69 934.781 1366.06 902.715 1344.11C879.851 1328.47 840.898 1317.3 813.757 1307.16C817.603 1284.32 822.813 1261.69 827.204 1238.98C828.902 1230.19 833.133 1211.7 833.281 1203.41L834.941 1200.98C838.046 1200.29 858.258 1209.14 862.598 1210.85L983.919 1258.98C1002.72 1206.88 1024.63 1153.62 1044.78 1101.93C1049.4 1090.09 1054.91 1074.5 1059.51 1063.66C1062.15 1057.43 1080.2 1038.5 1085.88 1032.1L1089.3 1030.37Z"/><path fill="#1DBF93" d="M1089.3 1030.37C1090.25 1027.23 1089.27 1028.24 1091.85 1026.86C1097.15 1030.71 1108.48 1058.22 1113.43 1065.84L1113.73 1068.97L1114.9 1069.81C1116.2 1070.77 1115.85 1070.28 1116.33 1071.11C1113.82 1077.68 1113.25 1146.91 1112.32 1160.23C1099.03 1171.53 1085.44 1182.87 1072.31 1194.32L1070.22 1216.72L1067.68 1217.36C1071.36 1166.16 1078.19 1114.36 1082.79 1063.19C1083.68 1053.29 1086.19 1041.89 1085.88 1032.1L1089.3 1030.37Z"/><path fill="#041410" d="M1085.88 1032.1L1089.3 1030.37C1082.91 1082.96 1077.9 1137.66 1072.71 1190.52C1084.38 1180.56 1097.93 1168.4 1109.86 1159.09L1111.29 1103.78C1111.55 1093.93 1111.79 1075.26 1113.43 1065.84L1113.73 1068.97L1114.9 1069.81C1116.2 1070.77 1115.85 1070.28 1116.33 1071.11C1113.82 1077.68 1113.25 1146.91 1112.32 1160.23C1099.03 1171.53 1085.44 1182.87 1072.31 1194.32L1070.22 1216.72L1067.68 1217.36C1071.36 1166.16 1078.19 1114.36 1082.79 1063.19C1083.68 1053.29 1086.19 1041.89 1085.88 1032.1Z"/><path fill="#041410" d="M704.464 1832.83C720.945 1754.38 736.952 1675.84 752.483 1597.21L831.5 1202.78L833.281 1203.41C833.133 1211.7 828.902 1230.19 827.204 1238.98C822.813 1261.69 817.603 1284.32 813.757 1307.16C840.898 1317.3 879.851 1328.47 902.715 1344.11C934.781 1366.06 964.902 1396.69 996.159 1420.19L1032.33 1256.99L1035.4 1257.24C1032.15 1266.66 1027.22 1291.92 1024.87 1302.61L1005.06 1392.21L918.848 1769.63L900.191 1850.73C899.108 1855.47 895.452 1874.84 892.974 1877.47C890.598 1877.22 889.273 1877.01 886.933 1876.52L887.848 1874.98C888.956 1875.16 890.379 1875.24 891.525 1875.35C893.575 1872.87 988.184 1458.64 995.206 1423.57C957.459 1392.15 918.734 1354.14 874.839 1332.54C870.695 1330.5 815.325 1310.55 813.042 1310.73C809.35 1322.53 804.835 1349.41 802.193 1362.7L781.778 1464.11C797.45 1470.76 813.233 1477.14 829.12 1483.26C850.534 1491.74 880.035 1500.57 890.316 1522.68C912.393 1570.15 858.542 1599.9 828.134 1624.37L762.032 1677.62C752.666 1685.02 736.329 1694.39 733.922 1704.62C730.434 1719.45 727.311 1735.35 724.061 1750.33L713.259 1802.64C712.035 1808.52 706.605 1826.15 708.847 1830.55C711.985 1832.81 735.288 1837.64 742.067 1839.75L738.944 1841.12C730.041 1839.67 713.773 1835.14 704.464 1832.83Z"/><path fill="#1DBF93" d="M781.559 1467.52L832.665 1487.89C863.768 1500.37 900.54 1512.52 890.623 1556.43C885.53 1578.98 862.499 1593.4 845.245 1607.11C829.304 1619.64 813.493 1632.34 797.816 1645.21C793.486 1648.07 782.441 1657.43 777.965 1661.01C763.966 1672.31 749.816 1683.42 735.519 1694.33C750.526 1619.87 765.083 1541.42 781.559 1467.52Z"/><path fill="#040605" d="M742.067 1839.75C776.955 1849.89 817.297 1856.4 852.733 1865.98C860.665 1868.13 880.749 1872.46 887.848 1874.98L886.933 1876.52L864.487 1871.34L864.298 1893.61L863.001 1900.58C847.944 1895.29 829.185 1886.8 814.174 1880.49L738.755 1848.72C737.586 1847.96 736.5 1847.25 735.302 1846.53L738.944 1841.12L742.067 1839.75Z"/><path fill="#040605" d="M897.817 126.493L900.287 127.579C905.68 131.734 914.096 137.534 917.671 143.058C912.159 153.27 905.772 164.456 897.179 172.473C893.628 176.152 887.994 181.699 883.745 184.456C877.455 189.664 869.653 195.471 862.334 199.069C860.416 200.837 858.707 202.447 856.708 204.14L859.676 212.477C889.513 216.27 922.27 229.185 952.261 234.208C958.878 235.316 971.221 230.2 978.486 229.961C1015.65 226.178 1058.03 226.704 1088.12 251.552L1090.4 253.47C1100.19 263.117 1112.47 274.406 1123 283.155C1146.06 283.073 1163.39 284.51 1183.11 297.76L1185.66 297.949L1186.2 299.061C1189.61 301.718 1192.98 304.427 1196.31 307.188C1184.1 312.688 1170.67 318.419 1158.7 324.231C1164.9 325.156 1176.23 323.614 1178.73 325.721C1199.9 327.076 1220.12 330.001 1234.92 347.265C1246.03 360.219 1249.59 377.483 1247.98 394.203C1241.41 450.583 1174.4 470.149 1126.78 464.617C1112.25 462.938 1098.1 458.893 1084.87 452.644L1083.2 454.89C1088.42 456.924 1099.5 460.146 1102.18 464.736C1103.3 466.665 1103.47 469.88 1104.16 471.871C1103.16 474.366 1103.3 474.236 1101.34 476.054L1101.28 476.41C1088.02 493.875 1073.43 508.503 1050.48 512.124C1049 512.358 1048.47 512.63 1047.56 513.729L1044.97 514.757C1044.19 514.643 1043.58 514.521 1042.78 514.499L1039.98 515.033C1039.87 514.403 1039.76 512.748 1038.85 512.562C994.456 503.512 956.158 472.254 921.397 444.763L919.362 443.734C921.854 433.903 923.962 416.248 925.51 405.661C928.881 381.29 932.585 356.966 936.621 332.696C921.879 349.387 908.484 357.714 885.801 361.373C853.39 366.602 832.016 354.303 806.988 336.19C825.708 317.848 841.115 301.312 867.663 297.189C869.623 296.366 871.577 295.53 873.526 294.682C870.091 294.038 866.375 292.694 863.005 291.592C824.992 285.193 762.167 252.043 778.662 203.704C788.421 175.104 823.514 163.112 849.064 154.085C858.852 150.627 868.405 145.99 877.777 141.362C878.798 140.215 880.428 139.484 881.827 138.667C888.073 134.339 892.031 131.522 897.817 126.493Z"/><path fill="#203B41" d="M897.817 126.493L900.287 127.579C905.68 131.734 914.096 137.534 917.671 143.058C912.159 153.27 905.772 164.456 897.179 172.473C893.628 176.152 887.994 181.699 883.745 184.456C877.455 189.664 869.653 195.471 862.334 199.069C860.416 200.837 858.707 202.447 856.708 204.14L859.676 212.477L860.053 213.78C881.494 221.917 956.404 233.939 971.897 244.103C993.457 276.693 964.334 316.256 926.045 308C910.466 304.641 891.849 296.871 876.915 294.209C870.857 292.895 869.442 291.045 863.005 291.592C824.992 285.193 762.167 252.043 778.662 203.704C788.421 175.104 823.514 163.112 849.064 154.085C858.852 150.627 868.405 145.99 877.777 141.362C878.798 140.215 880.428 139.484 881.827 138.667C888.073 134.339 892.031 131.522 897.817 126.493Z"/><path fill="#041410" d="M877.777 141.362C875.518 147.714 832.554 163.132 823.51 167.106C833.833 174.467 847.951 184.122 857.398 192.115C830.075 208.211 795.601 226.789 815.599 265.544C825.781 285.275 864.79 284.211 876.915 294.209C870.857 292.895 869.442 291.045 863.005 291.592C824.992 285.193 762.167 252.043 778.662 203.704C788.421 175.104 823.514 163.112 849.064 154.085C858.852 150.627 868.405 145.99 877.777 141.362Z"/><path fill="#1DBF93" d="M819.084 168.192C827.793 172.527 843.841 185.719 852.638 191.717C824.083 209.181 791.147 229.623 814.085 268.091C814.439 268.478 815.884 269.959 815.576 270.516C813.294 270.986 804.72 263.857 802.646 262.226C785.508 248.744 773.164 227.053 780.989 204.969C787.487 186.632 802.512 176.583 819.084 168.192Z"/><path fill="#041410" d="M883.745 184.456C883.007 184.134 882.27 183.813 881.533 183.491C882.651 181.999 885.077 182.177 887.021 178.047C888.878 174.104 893.352 172.431 897.179 172.473C893.628 176.152 887.994 181.699 883.745 184.456Z"/><path fill="#040605" d="M897.817 126.493L900.287 127.579C897.746 131.622 886.866 138.619 881.827 138.667C888.073 134.339 892.031 131.522 897.817 126.493Z"/><path fill="#040605" d="M856.708 204.14C854.575 199.016 858.171 198.142 862.334 199.069C860.416 200.837 858.707 202.447 856.708 204.14Z"/><path fill="#E6E6E6" d="M1083.2 454.89C1077.14 452.083 1071.34 448.725 1065.9 444.86C1051.21 434.429 1039.83 419.08 1037.09 400.993C1036.94 400.019 1034.46 388.608 1037.92 389.39C1039.07 390.791 1038.97 397.244 1039.24 398.984C1043.58 426.484 1062.1 441.209 1084.87 452.644L1083.2 454.89Z"/><path fill="#E6E6E6" d="M1178.73 325.721C1174.53 326.023 1160.65 326.269 1155.93 325.702C1155.83 325.69 1155.83 325.603 1155.81 325.474C1156.44 324.625 1157.71 324.463 1158.7 324.231C1164.9 325.156 1176.23 323.614 1178.73 325.721Z"/><path fill="#A1A0A0" d="M873.526 294.682C879.786 297.783 869.223 297.125 867.663 297.189C869.623 296.366 871.577 295.53 873.526 294.682Z"/><path fill="white" d="M1034.11 297.53C1053.85 298.176 1054.06 326.755 1042.91 336.858L1041.56 338.158C1022.82 338.367 1021.89 310.589 1034.11 297.53Z"/><path fill="white" d="M1120.02 294.552C1134.53 297.245 1140.83 315.187 1134.18 327.143L1132.36 326.894C1119.49 325.199 1112.91 306.13 1120.02 294.552Z"/><path fill="white" d="M1130.75 368.764C1141.5 372.431 1150.79 387.571 1145.53 397.725L1144.63 399.532C1132.08 395.811 1123.08 380.296 1130.75 368.764Z"/><path fill="white" d="M1223.54 370.481L1224.24 370.677C1229.29 372.027 1229.99 376.078 1228.98 381.01C1227.16 389.838 1222.96 394.929 1215.58 399.851C1202.04 396.306 1215.38 377.039 1221.97 371.761L1223.54 370.481Z"/><path fill="#1DBF93" d="M1116.33 1071.11L1158.12 1164.24C1169.75 1190.71 1183.99 1225.11 1196.68 1250.62C1212.06 1227.81 1228.88 1204.32 1244.85 1181.81L1246.46 1185.19L1247.24 1179.93C1251.81 1231.18 1254.29 1285.32 1257.89 1336.87L1262.6 1404.05C1263.27 1413.62 1264.84 1430.09 1264.82 1439.1L1263.14 1438.59C1262.76 1442.52 1263.43 1443.09 1260.81 1445.53C1251.44 1454.3 1241.62 1463.02 1232.13 1471.64L1178.25 1521L1116.57 1577.96C1108.58 1585.35 1090.24 1603.8 1082.16 1608.73L1079.38 1608.36C1075.66 1584.26 1072.99 1556.12 1070.09 1531.68L1051.99 1381.07C1049.69 1354.2 1044.56 1323.91 1041.42 1296.93C1040.18 1286.32 1038.4 1266.4 1036.34 1256.67L1035.4 1257.24L1032.33 1256.99C1033.49 1251.88 1034.56 1246.75 1035.54 1241.59C1040.75 1237.78 1065.62 1220.48 1067.68 1217.36L1070.22 1216.72L1072.31 1194.32C1085.44 1182.87 1099.03 1171.53 1112.32 1160.23C1113.25 1146.91 1113.82 1077.68 1116.33 1071.11Z"/><path fill="#040605" d="M1112.91 1186.25C1113.28 1187.18 1113.66 1188.11 1114.03 1189.04C1110.22 1204.06 1103.58 1222.95 1098.77 1238.01L1069.26 1329.62C1066.4 1338.45 1054.26 1373.65 1054.09 1380.9L1051.99 1381.07C1049.69 1354.2 1044.56 1323.91 1041.42 1296.93C1040.18 1286.32 1038.4 1266.4 1036.34 1256.67L1035.4 1257.24L1032.33 1256.99C1033.49 1251.88 1034.56 1246.75 1035.54 1241.59C1040.75 1237.78 1065.62 1220.48 1067.68 1217.36L1070.22 1216.72C1082.17 1207.29 1100.21 1195.33 1112.91 1186.25Z"/><path fill="#03271B" d="M1247.24 1179.93C1251.81 1231.18 1254.29 1285.32 1257.89 1336.87L1262.6 1404.05C1263.27 1413.62 1264.84 1430.09 1264.82 1439.1L1263.14 1438.59C1259.86 1430.7 1250.81 1270.14 1249.67 1250.69C1248.92 1248.91 1249.1 1248.36 1249.24 1246.37C1248.01 1224.83 1246.55 1203.31 1244.85 1181.81L1246.46 1185.19L1247.24 1179.93Z"/><path fill="#035E46" d="M1249.24 1246.37C1250.4 1248.01 1250.04 1248.41 1249.67 1250.69C1248.92 1248.91 1249.1 1248.36 1249.24 1246.37Z"/><path fill="#03271B" d="M1054.09 1380.9C1055.64 1384.86 1060.71 1430.93 1061.75 1439.59C1068.19 1496.01 1075 1552.4 1082.16 1608.73L1079.38 1608.36C1075.66 1584.26 1072.99 1556.12 1070.09 1531.68L1051.99 1381.07L1054.09 1380.9Z"/><path fill="#03271B" d="M1112.91 1186.25C1115.44 1183.6 1145.94 1162.18 1147.25 1162.8C1147.82 1167.1 1119.31 1183.83 1114.03 1189.04C1113.66 1188.11 1113.28 1187.18 1112.91 1186.25Z"/><path fill="#040605" d="M1263.14 1438.59L1264.82 1439.1L1284.67 1695.72C1288.32 1740.85 1293.5 1790.14 1296.13 1834.87C1289.21 1836.43 1274.05 1838.03 1270.42 1842.11C1270.73 1844.76 1272.21 1845.85 1274.06 1847.86L1270.39 1848.08C1242.95 1859.96 1215.43 1871.66 1187.84 1883.18C1174.64 1888.71 1156.13 1897.08 1143.08 1901.64C1143.85 1906.77 1143.91 1929.67 1143.4 1934.73L1141.02 1936.83C1141.15 1913.99 1140.77 1891.15 1139.87 1868.32L1111.31 1874.06C1102.86 1787.44 1089.81 1695.22 1079.38 1608.36L1082.16 1608.73C1090.24 1603.8 1108.58 1585.35 1116.57 1577.96L1178.25 1521L1232.13 1471.64C1241.62 1463.02 1251.44 1454.3 1260.81 1445.53C1263.43 1443.09 1262.76 1442.52 1263.14 1438.59Z"/><path fill="#041410" d="M1143.08 1901.64C1143.85 1906.77 1143.91 1929.67 1143.4 1934.73C1141.17 1929.31 1141.51 1907.53 1143.08 1901.64Z"/><path fill="#203B41" d="M1261.5 1447.71C1264.21 1450.44 1266.26 1483.81 1266.79 1490.12C1269.24 1518.56 1271.43 1547.03 1273.37 1575.51C1279.68 1660.11 1285.69 1748.72 1294.02 1833.02C1280.74 1836.69 1262.45 1839.81 1248.38 1842.87L1143.56 1865.17C1136.74 1866.69 1118.75 1871.97 1113.29 1869.67C1111.62 1864.75 1108.94 1835.02 1109.83 1828.8C1110.63 1823.21 1114.79 1805.79 1116.26 1799.57C1120.84 1780.84 1125.31 1762.08 1129.68 1743.29L1180.61 1522.73C1204.83 1497.59 1237.41 1472.95 1261.5 1447.71Z"/><path fill="#203B41" d="M1274.06 1847.86C1300.27 1873.57 1331.86 1892.82 1367.95 1901.4C1389.96 1906.63 1400.27 1905.99 1420.02 1917.83C1425.77 1921.67 1434.81 1928.38 1438.22 1934.35C1450.99 1949.63 1452.76 1967.1 1449.57 1985.98L1250.31 1985.79C1236.5 1975.76 1220.62 1961.44 1206.84 1950.29L1206.9 1985.07L1140.91 1985C1140.77 1968.94 1140.8 1952.89 1141.02 1936.83L1143.4 1934.73C1143.91 1929.67 1143.85 1906.77 1143.08 1901.64C1156.13 1897.08 1174.64 1888.71 1187.84 1883.18C1215.43 1871.66 1242.95 1859.96 1270.39 1848.08L1274.06 1847.86Z"/><path fill="#041410" d="M1143.4 1934.73C1173.33 1933.69 1433.18 1944.49 1439.3 1941.2C1439.21 1937.35 1438.52 1937.2 1438.22 1934.35C1450.99 1949.63 1452.76 1967.1 1449.57 1985.98L1250.31 1985.79C1236.5 1975.76 1220.62 1961.44 1206.84 1950.29L1206.9 1985.07L1140.91 1985C1140.77 1968.94 1140.8 1952.89 1141.02 1936.83L1143.4 1934.73Z"/><path fill="#1DBF93" d="M1143.24 1936.9C1242.29 1938.52 1342.85 1942.59 1442.18 1944.91C1448.54 1958.49 1449.24 1964.55 1448.74 1979.37C1448.62 1980.48 1448.57 1980.46 1448.17 1981.55L1446.71 1983.61C1441.71 1984.77 1255.42 1984.5 1251.29 1983.61C1243.13 1977.1 1211.78 1949.49 1205.45 1946.57L1204.14 1947.57L1204.01 1950.96C1204.9 1955.27 1206.17 1980.53 1204.7 1983.25C1204.47 1983.15 1204.23 1983.05 1204 1982.94C1184.18 1982.6 1163.07 1982.91 1143.17 1982.91C1143.55 1967.58 1143.58 1952.23 1143.24 1936.9Z"/><path fill="#035E46" d="M1251.29 1983.61C1258.83 1982.45 1280.66 1982.97 1289.11 1982.97L1363 1983.02L1418.74 1983.03C1425.55 1983.03 1440.89 1982.65 1446.71 1983.61C1441.71 1984.77 1255.42 1984.5 1251.29 1983.61Z"/><path fill="#104B3D" d="M1204.01 1950.96C1204.9 1955.27 1206.17 1980.53 1204.7 1983.25C1204.47 1983.15 1204.23 1983.05 1204 1982.94C1204.37 1972.47 1203.79 1961.55 1204.01 1950.96Z"/><path fill="#041410" d="M1274.06 1847.86C1300.27 1873.57 1331.86 1892.82 1367.95 1901.4C1389.96 1906.63 1400.27 1905.99 1420.02 1917.83C1418.6 1918.06 1390.24 1909.01 1386.49 1907.64C1378.06 1904.57 1364.28 1904.19 1357.13 1901.55C1326.89 1890.36 1292.19 1872.01 1270.39 1848.08L1274.06 1847.86Z"/><path fill="#203B41" d="M735.302 1846.53C736.5 1847.25 737.586 1847.96 738.755 1848.72L814.174 1880.49C829.185 1886.8 847.944 1895.29 863.001 1900.58L864.298 1893.61C865.684 1922.79 864.557 1958.75 864.509 1988.58C843.598 1988.21 822.684 1988.09 801.77 1988.23C801.885 1975.83 801.864 1963.43 801.707 1951.04L758.903 1988.59C693.1 1987.47 626.711 1988.94 560.874 1988.21C557.727 1968.21 558.332 1952.27 572.715 1936.03C577.155 1929.41 585.468 1923.51 592.347 1919.67C613.336 1907.77 627.525 1908.82 650.27 1903.17C669.414 1898.41 685.233 1889.51 701.753 1879.25C704.486 1876.58 710.728 1872.24 714.016 1869.8C723.536 1861.02 727.167 1856.56 735.302 1846.53Z"/><path fill="#041410" d="M864.298 1893.61C865.684 1922.79 864.557 1958.75 864.509 1988.58C843.598 1988.21 822.684 1988.09 801.77 1988.23C801.885 1975.83 801.864 1963.43 801.707 1951.04L758.903 1988.59C693.1 1987.47 626.711 1988.94 560.874 1988.21C557.727 1968.21 558.332 1952.27 572.715 1936.03C572.604 1940.98 570.906 1939.4 571.176 1943.6C579.744 1944.47 595.28 1943.59 604.284 1943.41C626.32 1943.01 648.353 1942.42 670.379 1941.65L862.51 1935.25C862.48 1928.15 861.987 1906.88 863.001 1900.58L864.298 1893.61Z"/><path fill="#1DBF93" d="M844.745 1938.45L862.008 1937.95L862.197 1986.15C842.891 1985.91 823.583 1985.85 804.275 1985.96L804.305 1945.58C788.866 1958.53 772.997 1972.74 757.931 1986.11C713.213 1985.24 666.037 1985.98 621.153 1985.99L563.247 1986.04C560.515 1971.47 561.545 1960.7 567.823 1947.17L844.745 1938.45Z"/><path fill="#041410" d="M701.753 1879.25C699.966 1884.57 689.618 1889.63 684.42 1892.2C675.187 1896.68 665.652 1900.5 655.885 1903.65C643.246 1907.69 629.907 1909.68 616.926 1912.53C611.132 1913.79 596.091 1921.44 592.347 1919.67C613.336 1907.77 627.525 1908.82 650.27 1903.17C669.414 1898.41 685.233 1889.51 701.753 1879.25Z"/><path fill="#040605" d="M735.302 1846.53C736.5 1847.25 737.586 1847.96 738.755 1848.72C736.149 1852.4 732.677 1854.19 729.22 1857.66C724.73 1862.17 720.015 1869.51 714.016 1869.8C723.536 1861.02 727.167 1856.56 735.302 1846.53Z"/><path fill="#1DBF93" d="M1143.88 158.983C1146.98 156.685 1160.67 144.963 1163.24 148.542L1166.22 148.339C1184.15 172.06 1201.27 181.281 1220.08 201.397C1244.91 227.961 1234.3 270.039 1204.26 287.928C1198.34 291.821 1192.59 295.671 1186.2 299.061L1185.66 297.949L1183.11 297.76C1163.39 284.51 1146.06 283.073 1123 283.155C1112.47 274.406 1100.19 263.117 1090.4 253.47L1088.12 251.552C1114.37 245.207 1146.95 239.575 1173.96 233.977C1174.01 231.81 1174.18 225.815 1173.47 224.057C1167.41 209.031 1157.39 197.97 1149.83 182.765L1151.42 180.509C1148.14 173.137 1146.14 166.674 1143.88 158.983Z"/><path fill="#03271B" d="M1151.42 180.509L1152.18 182.039C1162.39 202.32 1175.45 210.458 1176.81 234.072C1180.87 238.711 1182.3 240.341 1187.07 244.235C1191.43 247.789 1206.09 254.692 1208.45 258.167L1207.81 258.822C1193.96 254.875 1184.5 246.694 1174.95 236.471C1148.68 241.853 1116.63 249.05 1090.4 253.47L1088.12 251.552C1114.37 245.207 1146.95 239.575 1173.96 233.977C1174.01 231.81 1174.18 225.815 1173.47 224.057C1167.41 209.031 1157.39 197.97 1149.83 182.765L1151.42 180.509Z"/><path fill="#03271B" d="M1166.22 148.339C1184.15 172.06 1201.27 181.281 1220.08 201.397C1244.91 227.961 1234.3 270.039 1204.26 287.928C1198.34 291.821 1192.59 295.671 1186.2 299.061L1185.66 297.949L1183.11 297.76C1188.13 295.584 1193.19 292.083 1197.75 289.234C1223.79 272.973 1240.98 247.589 1226.46 216.332C1217.47 196.971 1201.25 188.147 1185.9 174.356C1177.35 166.673 1170.05 157.805 1163.24 148.542L1166.22 148.339Z"/><path fill="#040605" d="M1145.76 84.5759C1148.26 114.442 1151.58 122.827 1166.22 148.339L1163.24 148.542C1160.67 144.963 1146.98 156.685 1143.88 158.983C1146.14 166.674 1148.14 173.137 1151.42 180.509L1149.83 182.765C1133.16 148.118 1134.2 120.524 1145.76 84.5759Z"/><path fill="#040605" d="M897.817 126.493C915.892 108.962 918.077 97.1706 924.137 74.4695C926.719 101.229 927.622 117.309 917.671 143.058C914.096 137.534 905.68 131.734 900.287 127.579L897.817 126.493Z"/></svg>