<?xml version="1.0" encoding="utf-8" ?><svg xmlns="http://www.w3.org/2000/svg" xmlns:xlink="http://www.w3.org/1999/xlink" width="2048" height="2048" viewBox="0 0 2048 2048"><path fill="#F22F4E" d="M1049.94 358.204C1118.68 360.395 1186.03 378.102 1246.96 409.999C1272.07 423.426 1290.82 436.261 1314.42 451.204C1322.78 440.22 1329.43 431.769 1341.02 423.945C1360.97 410.747 1385.34 406.023 1408.78 410.814C1482.03 426.04 1507.87 515.321 1454.28 566.658C1447.46 573.185 1440.78 577.457 1432.81 582.464C1475.32 654.143 1500.21 725.531 1504.06 809.243L1504.02 821.862C1482.91 822.8 1455.75 822.2 1434.31 822.257L1287.6 822.235L1192.53 822.388C1174.35 822.419 1151.24 823.082 1133.63 821.446C1137.7 820.098 1141.76 818.689 1145.79 817.221C1195.82 798.584 1225.81 743.819 1205.25 692.758C1187.32 648.243 1153.02 637.71 1112.59 620.478L1049.26 593.156L1049.38 426.739C1049.36 416.918 1048.47 364.124 1049.94 358.204ZM1165.95 607.906C1182.07 607.875 1217.46 608.825 1232.03 607.353C1253.86 603.792 1272.67 596.503 1286.5 578.064C1294.46 567.452 1296.18 557.213 1300.36 545.156C1285.7 545.294 1245.52 544.163 1233.65 545.323C1195.81 550.1 1174.2 570.683 1165.95 607.906Z"/><path fill="#03CC7C" d="M993.296 357.392C995.156 357.528 995.551 357.757 997.366 358.257C999.455 362.345 998.918 562.116 999.696 592.484C988.426 596.186 972.769 604.044 961.446 609.037C942.59 617.352 923.587 626.207 904.85 634.782C877.341 647.371 859.069 664.271 849.015 693.42C840.051 719.409 842.954 745.924 855.225 770.461C870.294 800.593 893.808 812.196 924.657 822.172C911.394 822.761 895.067 821.993 881.46 821.764C859.924 821.338 838.384 821.211 816.845 821.384L546.478 821.617C546.527 797.767 548.929 775.733 552.472 752.249C561.084 706.736 576.065 662.664 596.973 621.331C607.495 600.35 619.357 580.206 629.667 559.69C613.936 551.497 600.009 540.233 588.708 526.562C553.663 483.902 551.876 416.023 557.125 363.31C596.242 430.749 661.614 451.187 736.082 454.342C749.321 441.773 768.484 429.611 784.475 420.509C848.498 384.147 919.85 362.58 993.296 357.392ZM756.761 547.74C762.838 563.755 767.417 576.732 780.672 588.429C803.056 608.182 835.4 607.241 863.545 607.26C871.748 606.939 880.467 606.759 888.613 606.267C873.434 549.705 834.628 545.949 782.459 547.516L756.761 547.74Z"/><path fill="#3E45D1" d="M794.137 849.145C801.434 850.43 818.071 856.692 825.721 859.444C848.113 867.529 870.393 875.924 892.552 884.628C912.695 892.378 942.873 902.391 961.637 911.024L961.436 1118.11C948.125 1127.97 929.104 1141.06 917.192 1151.48C915.255 1160.24 910.259 1171.6 907.187 1180.44C900.404 1199.98 892.214 1220.01 886.436 1239.81C880.689 1237.41 864.34 1228.04 858.622 1224.17C845.037 1214.97 819.718 1218.13 801.75 1218.16C786.371 1218.12 753.851 1216.26 740.302 1221.31C738.556 1221.96 722.577 1232.45 717.309 1235.16C712.398 1231 708.893 1227.72 703.197 1224.68C697.393 1210.15 678.902 1155.75 669.981 1147.11C658.322 1135.8 641.813 1127.97 628.436 1118.64C629.654 1049.77 626.78 979.032 628.488 910.258C633.617 907.645 646.802 903.263 652.734 901.123L695.378 885.577C724.635 874.795 765.947 857.633 794.137 849.145ZM756.876 1166.88C768.941 1171.17 785.991 1175.72 796.532 1181.86C809.526 1175.88 820.134 1172.22 833.814 1167.9C834.747 1160.8 834.228 1146.8 834.193 1139.19L834.074 1090.9C823.025 1095.17 807.177 1101.77 796.247 1105.12C782.839 1100.96 770.299 1094.31 756.606 1089.92C755.236 1105.73 756.447 1149.57 756.876 1166.88ZM928.992 1003.29C917.41 1005.19 900.207 1012.44 888.656 1016.55C864.423 1025.17 840.055 1035.07 815.707 1043.28C820.264 1051.78 824.881 1060.25 829.559 1068.68L834.48 1077.4C867.019 1062.39 896.491 1050.23 929.497 1037.01C929.596 1031.99 930.697 1006.14 928.992 1003.29ZM762.085 1064.66C766.836 1056.67 770.011 1051.21 773.862 1042.83C752.4 1034.09 727.862 1026.09 706.022 1018.07C697.463 1014.93 667.027 1002.6 660.143 1001.52C660.186 1012.56 659.973 1025.07 660.383 1036C691.406 1049.85 724.937 1061.75 755.145 1076.36L762.085 1064.66Z"/><path fill="#09181B" d="M1080.82 947.454C1081.67 947.625 1112.69 968.862 1117.2 971.605C1091.73 1019.98 1100.88 1081.62 1137.09 1121.83C1212.54 1205.59 1367.19 1184.17 1406.99 1075.16C1419.44 1041.06 1414.8 1005.14 1399.34 973.067C1404.85 969.827 1431.28 950.71 1433.71 950.466C1440 955.179 1451.95 991.989 1454.54 1001.89C1469.03 1057.42 1469.13 1058.77 1443.99 1105.02C1429.94 1132.01 1409.7 1159.32 1390.18 1182.57C1323.4 1262.13 1227.5 1315.62 1126.13 1336.29C1100.03 1341.62 1076.81 1343.24 1050.43 1345.49C1049.59 1331.06 1050.26 1309.37 1050.24 1294.23L1050.29 1191.93L1050.25 1113.25C1050.17 1048.14 1051.53 1008.55 1080.82 947.454Z"/><path fill="#09181B" d="M1047.14 851.409C1049.07 852.416 1063.05 863.084 1066.29 865.221C1087.67 879.363 1105.45 885.638 1130.24 890.337C1157.07 896.572 1178.97 888.334 1205.02 883.062C1237.49 876.492 1274.2 877.453 1306.62 883.761C1335.29 889.338 1358.8 897.906 1388.09 889.764C1405.1 885.037 1421.94 881.892 1437.51 872.564C1442.65 869.699 1447.28 866.732 1452.11 863.288C1455.99 860.521 1463.06 852.885 1467.58 853.327C1469.1 856.882 1466.41 866.149 1465.51 870.278C1452.28 930.937 1399.3 951.346 1350.55 980.919C1294.93 1015.57 1284.67 1060.37 1268.17 1120.45C1266.26 1127.41 1262.54 1146.09 1258.84 1150.81C1256.55 1149.31 1249.51 1120.1 1247.94 1114.81C1239.03 1084.85 1232.86 1056.71 1216.9 1029.26C1179.92 965.644 1090.56 963.513 1058.54 892.316C1052.68 879.291 1047.79 865.866 1047.14 851.409Z"/><path fill="#120A41" d="M295.395 1464.45C362.407 1459.33 399.257 1490.73 421.383 1551.48C408.651 1552.5 389.646 1552.22 376.608 1552.23C363.839 1523.27 334.978 1505.23 303.19 1507.97C286.327 1509.36 270.747 1517.52 259.998 1530.59C236.882 1558.41 240.006 1607.08 268.945 1629.6C284.383 1641.61 303.411 1646.15 322.742 1643.99C345.317 1641.47 358.649 1628.65 372.113 1611.72C374.147 1608.71 376.834 1605.5 379.115 1602.63C394.017 1601.93 408.943 1601.9 423.846 1602.55C412.608 1652.57 378.839 1689.18 327.384 1698.05C296.989 1703.12 265.828 1695.92 240.732 1678.04C170.235 1627.93 182.763 1509.82 260.496 1474.17C272.739 1468.56 282.171 1466.61 295.395 1464.45Z"/><path fill="#120A41" d="M514.789 1521.55C563.265 1515.91 607.149 1550.6 612.855 1599.07C618.56 1647.54 583.931 1691.47 535.47 1697.24C486.916 1703.02 442.881 1668.31 437.164 1619.75C431.448 1571.19 466.218 1527.2 514.789 1521.55ZM527.946 1654.04C598.582 1645.12 586.168 1572.53 522.297 1572.42C506.605 1574.66 491.616 1578.62 481.239 1591.96C475.33 1599.41 472.742 1608.95 474.081 1618.36C477.834 1644.94 504.514 1654.2 527.946 1654.04Z"/><path fill="#120A41" d="M1050.02 1522.35C1115.51 1518.45 1149.31 1559.12 1148.47 1622.41C1137.25 1623.5 1113.74 1622.61 1101.5 1622.46L1014.68 1621.61C1016.63 1627.95 1018.26 1632.51 1021.6 1638.05C1034.99 1660.23 1066.48 1668.05 1088.56 1654.48C1095.08 1650.47 1101.49 1643.13 1106.63 1637.56C1111.49 1637.06 1120.92 1637.34 1126.16 1637.35C1129.96 1637.42 1133.76 1637.53 1137.56 1637.67C1140.82 1637.82 1143.64 1637.73 1145.63 1639.91C1144.61 1643.77 1136.44 1657.15 1133.7 1660.89C1089.32 1721.49 987.116 1706.2 973.538 1628.79C969.148 1603.21 974.977 1576.94 989.771 1555.62C1005.07 1534.02 1025.05 1526.73 1050.02 1522.35ZM1014.16 1595.16C1030.02 1594.72 1045.88 1594.49 1061.75 1594.45C1074.28 1594.35 1089.36 1594.59 1101.67 1593.83C1095.71 1570.45 1077 1558.71 1053.31 1560.39C1032.03 1565.06 1021.47 1574.81 1014.16 1595.16Z"/><path fill="#120A41" d="M1223.83 1537.14C1263.07 1510.05 1317.55 1517.04 1324.4 1571.78C1329.35 1611.35 1318.89 1656.08 1330.3 1693.79L1285.37 1693.94C1284.27 1663.57 1287.15 1629.99 1283.55 1599.99C1281.43 1582.32 1262.73 1569.31 1244.52 1570.39C1232.87 1571.12 1222 1576.51 1214.37 1585.35C1199.1 1603.06 1200.74 1642.94 1202.85 1665.28C1203.78 1674.78 1205.34 1684.22 1207.53 1693.52C1192.85 1693.82 1178.17 1693.9 1163.48 1693.76L1163.46 1610.45C1163.53 1578.08 1166.7 1557.72 1158.5 1526.23L1214.62 1525.97C1209.86 1535.56 1202.88 1548.1 1199 1557.56C1196.17 1564.33 1195.38 1567.87 1195.62 1575.15L1196.67 1575.53L1198.67 1573.59C1202.21 1560.24 1214.29 1546.65 1223.83 1537.14Z"/><path fill="#120A41" d="M1509.95 1525.45C1524.74 1525.88 1539.54 1526.04 1554.34 1525.93C1554.33 1552.7 1548.79 1620.91 1567.05 1638.58C1574.78 1646.06 1585.85 1649.06 1596.41 1648.69C1607.41 1648.3 1617.83 1644 1625.25 1635.75C1641.6 1617.61 1639.43 1579 1637.75 1555.97C1637.02 1546 1634.73 1536.49 1632.87 1526.7C1646.01 1526.08 1663.69 1525.83 1676.86 1526.49L1677.1 1614.7C1677.22 1638.54 1676.14 1670.92 1681.49 1693.37C1669.2 1693.84 1642.67 1694.22 1630.42 1693.37C1634.77 1684.14 1638.8 1674.76 1642.5 1665.25C1646.95 1655.86 1648.22 1648.84 1649.52 1638.66C1644.99 1645.28 1638.66 1655.77 1635.34 1662.95C1619.23 1682.15 1606.53 1695.69 1579.76 1698.26C1563.04 1699.87 1546.07 1695.83 1532.67 1685.18C1520.01 1675.13 1517.33 1661.52 1516.31 1646.03C1513.67 1605.85 1519.67 1564.71 1509.95 1525.45Z"/><path fill="#120A41" d="M673.802 1553.76C702.526 1512.72 773.43 1507.53 786.462 1558.05C797.266 1599.94 784.281 1646.76 795.542 1692.78C781.138 1693.5 765.998 1693.34 751.515 1693.4C750.652 1663.26 753.592 1632.19 749.512 1602.36C746.429 1579.83 725.591 1566.52 703.537 1571.48C691.916 1574.21 681.831 1581.39 675.456 1591.48C661.139 1614.07 666.312 1668.65 672.445 1694.02C658.104 1694.17 643.056 1693.83 628.658 1693.73C627.273 1642.94 633.203 1573.45 624.456 1525.18C636.432 1527.04 663.204 1525.9 676.077 1526.17C670.494 1539.66 659.128 1563.31 660.39 1577.09C662.309 1576.26 672.582 1556.77 673.802 1553.76Z"/><path fill="#120A41" d="M869.098 1522.35C902.614 1519.36 941.058 1525.91 955.646 1560.5C957.662 1565.28 963.634 1575.74 959.582 1580.11C954.439 1581.13 924.724 1580.43 917.197 1580.46L916.9 1579.56C914.927 1573.42 913.694 1569.65 908.391 1565.31C895.398 1553.73 862.528 1552.82 851.582 1567.56C843.843 1579.05 855.173 1586.58 865.907 1588.39C903.688 1594.75 972.722 1601.97 961.227 1657.46C955.609 1684.58 929.066 1693.63 903.67 1697.3C867.8 1700.63 828.074 1692.82 812.506 1656.99C809.989 1651.2 807.978 1646.98 809.149 1640.47C813.489 1637.36 845.849 1639.29 853.506 1639.48C854.974 1648.54 855.946 1651.46 863.552 1658.22C877.285 1670.43 925.115 1670.9 921.779 1644.07C921.365 1640.74 917.215 1635.78 913.981 1634.19C887.24 1621.43 857.603 1628.12 831.671 1611.78C809.084 1597.55 807.731 1569.18 820.568 1547.82C830.317 1531.6 851.494 1525.59 869.098 1522.35Z"/><path fill="#120A41" d="M1758.66 1522.37C1785.62 1519.88 1817.69 1523.45 1835.68 1546.36C1843.95 1556.9 1847 1568.74 1850.29 1581.49L1807.23 1580.38C1801.33 1562.35 1790.86 1557.98 1772.68 1556.03C1743.79 1552.8 1716.37 1581.4 1759.55 1590.23C1782.68 1594.97 1812.85 1595.85 1832.52 1609.82C1851.07 1623 1856.75 1654.31 1842.52 1672.77C1828.92 1690.41 1811.58 1694.42 1790.98 1697.68C1743.88 1699.84 1707.08 1690.67 1696.05 1639.42C1708.8 1638.47 1726.89 1638.46 1739.82 1638.5C1743.98 1647.64 1744.77 1650.97 1752.26 1658.35C1763.11 1669.07 1799.12 1668.5 1807.52 1656.01C1824.67 1630.4 1772.76 1625.86 1757.34 1623.46C1731.57 1620.3 1698.94 1608.2 1700.71 1576.37C1702.8 1538.87 1727.04 1527.99 1758.66 1522.37Z"/><path fill="#120A41" d="M1419.39 1521.44C1461.29 1521.76 1488.2 1538.36 1497.48 1580.45C1483.32 1580.27 1469.15 1580.23 1454.99 1580.31C1447.69 1561.55 1432.41 1556.05 1412.96 1555.89C1402.7 1555.8 1385.21 1560.98 1385.5 1573.8C1385.6 1578.3 1389.33 1583.51 1393.44 1585.51C1421.5 1597.71 1459.77 1590.65 1483.51 1613.17C1492.76 1622.09 1498.07 1634.32 1498.29 1647.16C1498.39 1656.72 1495.46 1663.89 1490.21 1671.68C1474.65 1694.73 1447.21 1697.78 1421.7 1698.14C1380.39 1697.18 1353.3 1681.48 1343.54 1639.96C1358.25 1639.28 1374.48 1639.66 1389.2 1639.82C1390.52 1645.91 1391.36 1650.11 1395.91 1654.76C1409.67 1668.84 1440.23 1669.61 1454.34 1655.81C1462.82 1647.52 1456.49 1638.28 1448.07 1633.27C1432.56 1624.73 1414.11 1625.02 1396.38 1622.12C1353.22 1615.04 1330.52 1578.69 1361.66 1541.49C1374.24 1526.46 1399.96 1522.12 1419.39 1521.44Z"/><path fill="#3E45D1" d="M997.906 1162.57L998.606 1162.96C1001.81 1166.68 1000.49 1219.73 1000.48 1229.28L1000.83 1345.36C969.992 1343.99 917.735 1336.25 888.268 1327.49C880.38 1324.92 873.217 1322.69 865.582 1319.35C870.204 1312.61 882.093 1299.34 887.894 1292.08C923.45 1247.59 962.216 1207.03 997.906 1162.57Z"/><path fill="#F22F4E" d="M1050.03 635.781C1068.47 643.537 1149.15 677.488 1158.21 687.706C1163.29 693.436 1165.23 701.378 1164.61 708.883C1161.42 747.507 1109.9 722.922 1098.04 733.803C1097.64 734.167 1097.27 734.56 1096.89 734.939C1080.55 758.401 1067.4 782.127 1048.84 805.13C1048.35 772.556 1050.18 737.551 1049.65 704.497C1049.45 692.219 1048.76 644.003 1050.03 635.781Z"/><path fill="#03CC7C" d="M996.917 636.122C999.621 639.281 998.562 654.286 998.546 659.052L998.609 698.135C998.81 732.41 1000.42 770.339 999.465 804.264C985.294 783.093 971.551 760.893 957.462 739.479L951.264 731.369C941.984 731.793 933.238 732.289 923.929 731.687C894.702 729.797 884.2 711.672 897.338 685.52C920.642 670.149 970.083 649.249 996.917 636.122Z"/><path fill="#3E45D1" d="M601.024 932.634C602.97 933.503 602.062 932.971 603.501 934.93C604.376 953.261 606.228 1077.54 603.246 1086.23L601.595 1086.93C596.109 1084.45 591.986 1074.42 589.05 1068.82C575.901 1041.37 563.589 1017.84 566.241 986.415C568.504 959.587 578.442 946.303 601.024 932.634Z"/><path fill="#3E45D1" d="M985.667 932.31C1021.98 940.05 1011.36 986.636 1012.58 1014.08C1013.4 1032.48 1012.53 1052.69 1011.51 1071.04C1011.29 1075 1007.31 1080.02 1004.89 1082.99C1000.39 1087.16 992.816 1093.82 986.501 1091.15C984.94 1073.34 985.862 1035.98 985.766 1016.68C985.651 993.791 984.013 954.032 985.667 932.31Z"/><path fill="#3E45D1" d="M743.034 1254.25C754.064 1253.54 773.379 1254.34 785.271 1254.4C807.914 1254.52 832.258 1253.91 854.634 1254.95C858.871 1259.35 864.586 1266.87 868.58 1271.82C863.91 1275.88 855.843 1281.19 850.538 1284.89C840.506 1291.24 830.791 1297.66 820.636 1303.89C807.193 1295.67 748.972 1263.94 743.034 1254.25Z"/><path fill="#09181B" d="M1138.52 985.506C1143.14 987.323 1208.53 1038.96 1211.66 1042.95L1211.17 1045.31C1208.31 1049.36 1204.92 1050.93 1200.67 1053.58C1176.93 1067.16 1145.12 1059.39 1134.29 1032.94C1128.13 1017.9 1132.19 999.925 1138.52 985.506Z"/><path fill="#09181B" d="M1373.59 987.824L1375.55 988.244C1400.93 1009.04 1374.28 1078.74 1318.5 1055.04C1313.75 1052.59 1305.51 1049.37 1304.16 1043.97C1307.83 1038.28 1362.08 998.105 1373.59 987.824Z"/><path fill="#F7F7F7" fill-opacity="0.10980392" d="M624.456 1525.18C631.022 1524.06 667.886 1523.95 674.678 1524.9C681.417 1532.18 663.125 1548.62 667.815 1557.2C670.383 1557.07 671.729 1555.46 673.802 1553.76C672.582 1556.77 662.309 1576.26 660.39 1577.09C659.128 1563.31 670.494 1539.66 676.077 1526.17C663.204 1525.9 636.432 1527.04 624.456 1525.18Z"/><path fill="#F7F7F7" fill-opacity="0.06666667" d="M1199 1557.56C1205.14 1551.26 1216.21 1540.66 1223.83 1537.14C1214.29 1546.65 1202.21 1560.24 1198.67 1573.59L1196.67 1575.53L1195.62 1575.15C1195.38 1567.87 1196.17 1564.33 1199 1557.56Z"/><path fill="#F7F7F7" fill-opacity="0.10980392" d="M1649.52 1638.66C1648.22 1648.84 1646.95 1655.86 1642.5 1665.25C1642.7 1661.83 1642.81 1660.6 1642.39 1657.11L1641.11 1656.93C1639.28 1659.1 1637.51 1661.09 1635.34 1662.95C1638.66 1655.77 1644.99 1645.28 1649.52 1638.66Z"/></svg>